<?xml version="1.0" encoding="UTF-8" standalone="no"?>
<!-- Created with Inkscape (http://www.inkscape.org/) -->

<svg
   xmlns:dc="http://purl.org/dc/elements/1.1/"
   xmlns:cc="http://creativecommons.org/ns#"
   xmlns:rdf="http://www.w3.org/1999/02/22-rdf-syntax-ns#"
   xmlns:svg="http://www.w3.org/2000/svg"
   xmlns="http://www.w3.org/2000/svg"
   xmlns:xlink="http://www.w3.org/1999/xlink"
   xmlns:sodipodi="http://sodipodi.sourceforge.net/DTD/sodipodi-0.dtd"
   xmlns:inkscape="http://www.inkscape.org/namespaces/inkscape"
   width="1280"
   height="800"
   id="svg8561"
   version="1.1"
   inkscape:version="0.48.4 r9939"
   sodipodi:docname="behance-logo-by-svgstock.svg"
   inkscape:export-filename="C:\Users\User\Desktop\SVGSTOCK\LOGO\adidas-logo-by-svgstock\adidas-logo-by svgstock.png"
   inkscape:export-xdpi="90"
   inkscape:export-ydpi="90">
  <defs
     id="defs8563">
    <linearGradient
       y2="2390.4688"
       x2="10201.661"
       y1="2456.8975"
       x1="10201.661"
       gradientUnits="userSpaceOnUse"
       id="linearGradient5374-7-1"
       xlink:href="#linearGradient4591-09-3-0-8-9"
       inkscape:collect="always" />
    <linearGradient
       inkscape:collect="always"
       id="linearGradient4591-09-3-0-8-9">
      <stop
         style="stop-color:#f8f8f6;stop-opacity:1;"
         offset="0"
         id="stop4593-4-8-7-3-8" />
      <stop
         style="stop-color:#f8f8f6;stop-opacity:0;"
         offset="1"
         id="stop4595-8-9-1-8-8" />
    </linearGradient>
    <linearGradient
       y2="2390.4688"
       x2="10201.661"
       y1="2456.8975"
       x1="10201.661"
       gradientUnits="userSpaceOnUse"
       id="linearGradient5550-3-3"
       xlink:href="#linearGradient4591-09-3-0-8-9"
       inkscape:collect="always" />
    <linearGradient
       y2="2390.4688"
       x2="10201.661"
       y1="2456.8975"
       x1="10201.661"
       gradientUnits="userSpaceOnUse"
       id="linearGradient5670-7-2"
       xlink:href="#linearGradient4591-09-3-0-8-9"
       inkscape:collect="always" />
    <linearGradient
       y2="2390.4688"
       x2="10201.661"
       y1="2456.8975"
       x1="10201.661"
       gradientUnits="userSpaceOnUse"
       id="linearGradient5790-1-9"
       xlink:href="#linearGradient4591-09-3-0-8-9"
       inkscape:collect="always" />
    <linearGradient
       y2="2390.4688"
       x2="10201.661"
       y1="2456.8975"
       x1="10201.661"
       gradientUnits="userSpaceOnUse"
       id="linearGradient5910-0-3"
       xlink:href="#linearGradient4591-09-3-0-8-9"
       inkscape:collect="always" />
    <linearGradient
       inkscape:collect="always"
       xlink:href="#linearGradient4591-09-3-0-8-9"
       id="linearGradient12416"
       gradientUnits="userSpaceOnUse"
       x1="10201.661"
       y1="2456.8975"
       x2="10201.661"
       y2="2390.4688" />
    <linearGradient
       inkscape:collect="always"
       xlink:href="#linearGradient4591-09-3-0-8-9"
       id="linearGradient12418"
       gradientUnits="userSpaceOnUse"
       x1="10201.661"
       y1="2456.8975"
       x2="10201.661"
       y2="2390.4688" />
    <linearGradient
       inkscape:collect="always"
       xlink:href="#linearGradient4591-09-3-0-8-9"
       id="linearGradient12420"
       gradientUnits="userSpaceOnUse"
       x1="10201.661"
       y1="2456.8975"
       x2="10201.661"
       y2="2390.4688" />
    <linearGradient
       inkscape:collect="always"
       xlink:href="#linearGradient4591-09-3-0-8-9"
       id="linearGradient12422"
       gradientUnits="userSpaceOnUse"
       x1="10201.661"
       y1="2456.8975"
       x2="10201.661"
       y2="2390.4688" />
    <linearGradient
       inkscape:collect="always"
       xlink:href="#linearGradient4591-09-3-0-8-9"
       id="linearGradient12424"
       gradientUnits="userSpaceOnUse"
       x1="10201.661"
       y1="2456.8975"
       x2="10201.661"
       y2="2390.4688" />
    <linearGradient
       id="linearGradient8197-3-2">
      <stop
         style="stop-color:#014d77;stop-opacity:1;"
         offset="0"
         id="stop8199-73-4" />
      <stop
         style="stop-color:#0188d3;stop-opacity:0;"
         offset="1"
         id="stop8201-5-9" />
    </linearGradient>
    <linearGradient
       inkscape:collect="always"
       xlink:href="#linearGradient8360-5-8"
       id="linearGradient6348-8-8"
       gradientUnits="userSpaceOnUse"
       gradientTransform="matrix(1.334049,0,0,1.334049,-5797.4291,226.04273)"
       x1="7023.666"
       y1="-1551.8186"
       x2="6991.8105"
       y2="-1479.2429" />
    <linearGradient
       inkscape:collect="always"
       id="linearGradient8360-5-8">
      <stop
         style="stop-color:#18e8e1;stop-opacity:1;"
         offset="0"
         id="stop8362-6-2" />
      <stop
         style="stop-color:#18e8e1;stop-opacity:0;"
         offset="1"
         id="stop8364-9-7" />
    </linearGradient>
    <linearGradient
       inkscape:collect="always"
       xlink:href="#linearGradient8360-5-8"
       id="linearGradient16738"
       gradientUnits="userSpaceOnUse"
       gradientTransform="matrix(1.334049,0,0,1.334049,-5797.4291,226.04273)"
       x1="7023.666"
       y1="-1551.8186"
       x2="6991.8105"
       y2="-1479.2429" />
    <linearGradient
       inkscape:collect="always"
       xlink:href="#linearGradient8360-5-8"
       id="linearGradient17412"
       gradientUnits="userSpaceOnUse"
       gradientTransform="matrix(1.334049,0,0,1.334049,-5797.4291,226.04273)"
       x1="7023.666"
       y1="-1551.8186"
       x2="6991.8105"
       y2="-1479.2429" />
    <linearGradient
       inkscape:collect="always"
       xlink:href="#linearGradient5196-6"
       id="linearGradient10247-4"
       gradientUnits="userSpaceOnUse"
       gradientTransform="matrix(1.0621377,0,0,1.0621377,4170.5418,-4886.1708)"
       x1="-2499.7656"
       y1="2249.3789"
       x2="-2317.803"
       y2="2359.2563" />
    <linearGradient
       id="linearGradient5196-6">
      <stop
         id="stop5198-3"
         offset="0"
         style="stop-color:#f67818;stop-opacity:1;" />
      <stop
         id="stop5200-4"
         offset="1"
         style="stop-color:#ea5724;stop-opacity:0;" />
    </linearGradient>
    <linearGradient
       inkscape:collect="always"
       xlink:href="#linearGradient5224-0"
       id="linearGradient10253-5"
       gradientUnits="userSpaceOnUse"
       x1="-2530.4688"
       y1="1994.8125"
       x2="-2027.9688"
       y2="1994.8125" />
    <linearGradient
       id="linearGradient5224-0"
       inkscape:collect="always">
      <stop
         id="stop5226-2"
         offset="0"
         style="stop-color:#eb352c;stop-opacity:1;" />
      <stop
         id="stop5228-0"
         offset="1"
         style="stop-color:#eb352c;stop-opacity:0;" />
    </linearGradient>
    <linearGradient
       inkscape:collect="always"
       xlink:href="#linearGradient5224-0"
       id="linearGradient10251-1"
       gradientUnits="userSpaceOnUse"
       x1="-2530.4688"
       y1="1994.8125"
       x2="-2027.9688"
       y2="1994.8125" />
    <linearGradient
       inkscape:collect="always"
       xlink:href="#linearGradient5224-0"
       id="linearGradient10249-6"
       gradientUnits="userSpaceOnUse"
       x1="-2530.4688"
       y1="1994.8125"
       x2="-2027.9688"
       y2="1994.8125" />
    <filter
       id="filter3917"
       inkscape:label="Inner Shadow"
       inkscape:menu="Shadows and Glows"
       inkscape:menu-tooltip="Adds a colorizable drop shadow inside"
       color-interpolation-filters="sRGB">
      <feGaussianBlur
         id="feGaussianBlur3919"
         stdDeviation="4"
         result="result8" />
      <feOffset
         id="feOffset3921"
         dx="4"
         dy="4"
         result="result11" />
      <feComposite
         id="feComposite3923"
         in2="result11"
         result="result6"
         in="SourceGraphic"
         operator="in" />
      <feFlood
         id="feFlood3925"
         result="result10"
         in="result6"
         flood-opacity="1"
         flood-color="rgb(0,0,0)" />
      <feBlend
         id="feBlend3927"
         in2="result10"
         mode="normal"
         in="result6"
         result="result12" />
      <feComposite
         id="feComposite3929"
         in2="SourceGraphic"
         result="result2"
         operator="in" />
    </filter>
    <filter
       id="filter3978"
       inkscape:label="Inner Shadow"
       inkscape:menu="Shadows and Glows"
       inkscape:menu-tooltip="Adds a colorizable drop shadow inside"
       color-interpolation-filters="sRGB">
      <feGaussianBlur
         id="feGaussianBlur3980"
         stdDeviation="4"
         result="result8" />
      <feOffset
         id="feOffset3982"
         dx="4"
         dy="4"
         result="result11" />
      <feComposite
         id="feComposite3984"
         in2="result11"
         result="result6"
         in="SourceGraphic"
         operator="in" />
      <feFlood
         id="feFlood3986"
         result="result10"
         in="result6"
         flood-opacity="1"
         flood-color="rgb(0,0,0)" />
      <feBlend
         id="feBlend3988"
         in2="result10"
         mode="normal"
         in="result6"
         result="result12" />
      <feComposite
         id="feComposite3990"
         in2="SourceGraphic"
         result="result2"
         operator="in" />
    </filter>
    <filter
       id="filter3994"
       inkscape:label="Inner Shadow"
       inkscape:menu="Shadows and Glows"
       inkscape:menu-tooltip="Adds a colorizable drop shadow inside"
       color-interpolation-filters="sRGB">
      <feGaussianBlur
         id="feGaussianBlur3996"
         stdDeviation="4"
         result="result8" />
      <feOffset
         id="feOffset3998"
         dx="4"
         dy="4"
         result="result11" />
      <feComposite
         id="feComposite4000"
         in2="result11"
         result="result6"
         in="SourceGraphic"
         operator="in" />
      <feFlood
         id="feFlood4002"
         result="result10"
         in="result6"
         flood-opacity="1"
         flood-color="rgb(0,0,0)" />
      <feBlend
         id="feBlend4004"
         in2="result10"
         mode="normal"
         in="result6"
         result="result12" />
      <feComposite
         id="feComposite4006"
         in2="SourceGraphic"
         result="result2"
         operator="in" />
    </filter>
  </defs>
  <sodipodi:namedview
     id="base"
     pagecolor="#ffffff"
     bordercolor="#666666"
     borderopacity="1.0"
     inkscape:pageopacity="0.0"
     inkscape:pageshadow="2"
     inkscape:zoom="0.49497474"
     inkscape:cx="741.15285"
     inkscape:cy="355.94598"
     inkscape:document-units="px"
     inkscape:current-layer="layer1"
     showgrid="false"
     inkscape:showpageshadow="false"
     objecttolerance="10000"
     guidetolerance="10000"
     inkscape:snap-page="false"
     inkscape:window-width="1366"
     inkscape:window-height="745"
     inkscape:window-x="-8"
     inkscape:window-y="-8"
     inkscape:window-maximized="1" />
  <metadata
     id="metadata8566">
    <rdf:RDF>
      <cc:Work
         rdf:about="">
        <dc:format>image/svg+xml</dc:format>
        <dc:type
           rdf:resource="http://purl.org/dc/dcmitype/StillImage" />
        <dc:title></dc:title>
      </cc:Work>
    </rdf:RDF>
  </metadata>
  <g
     inkscape:label="Layer 1"
     inkscape:groupmode="layer"
     id="layer1"
     transform="translate(0,-252.36218)">
    <g
       transform="translate(6760,4407.9999)"
       id="g21810"
       inkscape:export-filename="C:\Users\User\Desktop\SVGSTOCK\LOGO\behance-logo-by-svgstock\behance-logo-by-svgstock.png"
       inkscape:export-xdpi="90"
       inkscape:export-ydpi="90">
      <path
         style="fill:#319dd4;fill-opacity:1"
         d="m -6760,-4155.6377 1280,0 0,800 -1280,0 z"
         id="rect21812"
         inkscape:connector-curvature="0" />
      <g
         id="g21814">
        <g
           transform="matrix(1.0296449,0,0,1.0296449,-9711.2943,-2398.8457)"
           id="g21816">
          <g
             transform="matrix(0.96651217,0,0,0.96651217,3146.8578,-1330.0557)"
             style="font-size:52.30137634px;font-style:normal;font-weight:normal;line-height:125%;letter-spacing:0px;word-spacing:0px;fill:#ffffff;fill-opacity:1;stroke:none;font-family:Sans"
             id="g21818">
            <path
               d="m -257.51747,374.07746 c -10e-6,-0.24366 0.009,-0.4876 0.0263,-0.73182 0.0175,-0.24419 0.0439,-0.48866 0.079,-0.73341 0.24366,-2.47502 1.32423,-4.58401 3.2417,-6.32699 1.91851,-1.70888 4.13285,-2.56333 6.64302,-2.56335 0.90657,2e-5 1.68228,0.32244 2.32713,0.96724 0.6448,0.64485 0.96722,1.43812 0.96724,2.3798 -2e-5,0.8715 -0.30515,1.60358 -0.91537,2.19625 -0.61027,0.59271 -1.35113,0.90661 -2.22258,0.94171 l -0.15642,0 c -1.9526,2e-5 -3.05125,0.95875 -3.29597,2.87619 -0.0341,0.34903 -0.0511,0.64538 -0.0511,0.88903 -1e-5,0.24476 -0.0176,0.45438 -0.0527,0.62887 -0.2788,2.54528 -1.3599,4.6548 -3.2433,6.32858 -1.91747,1.70785 -4.13128,2.56177 -6.64142,2.56176 -0.90659,1e-5 -1.68257,-0.33118 -2.32793,-0.99358 -0.64536,-0.66238 -0.96804,-1.44686 -0.96804,-2.35346 0,-0.87147 0.33146,-1.62989 0.99438,-2.27526 0.66291,-0.64535 1.43011,-0.98505 2.30159,-1.01912 1.98768,2e-5 3.08581,-0.92413 3.29438,-2.77244 z m 13.02267,2.40534 c 0.9768,-0.31389 1.89243,-0.7757 2.74691,-1.38543 0.85442,-0.6097 1.5865,-1.32449 2.19625,-2.14437 0.60968,-0.81986 1.08905,-1.72645 1.43809,-2.71978 0.34899,-0.99329 0.5235,-2.04805 0.52353,-3.16429 -3e-5,-2.82403 -1.01117,-5.19505 -3.03341,-7.11307 -2.0223,-1.91796 -4.41088,-2.8594 -7.16575,-2.82432 -3.94028,0.0352 -7.44427,1.36045 -10.51198,3.97592 -3.03369,2.61445 -4.88198,5.80454 -5.5449,9.57028 -1.01087,0.31392 -1.92597,0.78477 -2.74531,1.41256 -0.81933,0.62782 -1.53412,1.35139 -2.14437,2.17071 -0.61025,0.81935 -1.0811,1.73445 -1.41256,2.74531 -0.33146,1.01088 -0.49719,2.05687 -0.49719,3.13796 0,2.79001 0.99385,5.14374 2.98154,7.06119 1.95257,1.91747 4.32386,2.8762 7.11386,2.8762 4.00943,-0.0351 7.51342,-1.34287 10.51199,-3.92325 3.03366,-2.64953 4.88142,-5.87474 5.5433,-9.67562 z"
               style="font-variant:normal;font-stretch:normal;text-align:start;line-height:125%;letter-spacing:-5.01010036px;writing-mode:lr-tb;text-anchor:start;fill:#ffffff;font-family:Baubau;-inkscape-font-specification:Baubau"
               id="path21820"
               inkscape:connector-curvature="0" />
            <path
               d="m -226.56718,359.32779 c -1.4993,-1.28962 -3.24278,-2.06533 -5.23046,-2.32713 -1.9877,-0.26173 -3.87058,0.0437 -5.64864,0.91617 -2.44099,1.18541 -4.09722,3.08531 -4.96869,5.69971 -0.87148,2.54529 -0.73209,5.07353 0.41818,7.58472 1.04598,2.19627 2.10074,4.36671 3.16429,6.51134 1.06353,2.14465 2.13585,4.3151 3.21696,6.51134 0.9417,2.26648 2.51067,3.88759 4.70693,4.86335 1.28965,0.66292 2.73679,0.99438 4.34143,0.99438 1.60354,0 3.0677,-0.33146 4.39249,-0.99438 2.12707,-0.97576 3.69604,-2.59687 4.70694,-4.86335 1.08107,-2.19624 2.14461,-4.36669 3.19062,-6.51134 1.04596,-2.14463 2.1095,-4.31507 3.19063,-6.51134 1.18534,-2.44096 1.32474,-4.9692 0.41818,-7.58472 -0.87151,-2.6144 -2.52774,-4.5143 -4.96869,-5.69971 -1.84833,-0.90656 -3.76605,-1.21168 -5.75319,-0.91537 -1.98718,0.29638 -3.71284,1.07182 -5.17698,2.32633 z m -3.60881,6.01575 3.50346,7.21761 3.60881,-7.21761 c 0.38411,-0.83741 1.01191,-1.39551 1.88341,-1.67433 0.87146,-0.27876 1.70835,-0.22662 2.51068,0.15642 0.83634,0.41927 1.39392,1.06463 1.67273,1.93609 0.27876,0.8715 0.22662,1.70839 -0.15642,2.51068 l -6.22324,12.60449 c -0.10536,0.52247 -0.33227,0.9755 -0.68074,1.35909 -0.3485,0.38361 -0.74061,0.67995 -1.17633,0.88903 -0.43576,0.2091 -0.91539,0.31365 -1.4389,0.31364 -0.52247,1e-5 -1.01035,-0.10427 -1.46363,-0.31284 -0.94172,-0.45329 -1.53441,-1.20293 -1.77807,-2.24892 l -6.22483,-12.60449 c -0.38308,-0.80229 -0.42644,-1.63918 -0.13009,-2.51068 0.29634,-0.87146 0.84514,-1.51682 1.64639,-1.93609 0.8023,-0.38304 1.6392,-0.43518 2.51068,-0.15642 0.87147,0.27882 1.51683,0.83692 1.93609,1.67433 z"
               style="font-variant:normal;font-stretch:normal;text-align:start;line-height:125%;letter-spacing:-5.01010036px;writing-mode:lr-tb;text-anchor:start;fill:#ffffff;font-family:Baubau;-inkscape-font-specification:Baubau"
               id="path21822"
               inkscape:connector-curvature="0" />
            <path
               d="m -195.23543,390.08167 c 3.62634,0 6.72971,-1.29019 9.31012,-3.87057 2.6144,-2.54526 3.92161,-5.66566 3.92164,-9.3612 -3e-5,-1.91851 -0.38363,-3.69711 -1.15079,-5.3358 0.76716,-1.39392 1.15076,-2.92778 1.15079,-4.60159 -3e-5,-2.71974 -0.97632,-5.05592 -2.92886,-7.00852 -1.9526,-1.95255 -4.28878,-2.92883 -7.00852,-2.92887 l -6.64142,0 c -4.53297,4e-5 -8.42083,1.62142 -11.66359,4.86415 -3.24277,3.24279 -4.86415,7.14768 -4.86415,11.71466 0,4.53297 1.62138,8.42083 4.86415,11.66359 3.24276,3.24276 7.13062,4.86415 11.66359,4.86415 z m -3.34704,-19.87478 c -0.90661,2e-5 -1.68259,0.3227 -2.32793,0.96804 -0.64538,0.64538 -0.96806,1.43838 -0.96804,2.379 -2e-5,0.90661 0.32266,1.68258 0.96804,2.32793 0.64534,0.64538 1.42132,0.96806 2.32793,0.96804 0.94062,2e-5 1.73362,-0.32266 2.379,-0.96804 0.64534,-0.64535 0.96802,-1.42132 0.96804,-2.32793 -2e-5,-0.94062 -0.3227,-1.73362 -0.96804,-2.379 -0.64538,-0.64534 -1.43838,-0.96802 -2.379,-0.96804 z m 0,13.28443 c -2.71979,1e-5 -5.05596,-0.97628 -7.00853,-2.92886 -1.95258,-1.95257 -2.92887,-4.28874 -2.92886,-7.00853 -1e-5,-2.71975 0.97628,-5.05592 2.92886,-7.00852 1.95257,-1.95255 4.28874,-2.92884 7.00853,-2.92887 l 6.64142,0 c 1.22046,3e-5 2.16217,0.48844 2.82511,1.46523 l 0,0.0527 0,0.0511 0.0511,0 0,0.0527 0.0527,0.0527 0,0.0527 0.0527,0.0527 0,0.0511 0,0.0527 c -2e-5,3e-5 -2e-5,0.0176 0,0.0527 -2e-5,2e-5 0.0175,2e-5 0.0527,0 l 0,0.0527 c -2e-5,0.0341 -2e-5,0.0511 0,0.0511 0.0351,3e-5 0.0526,3e-5 0.0527,0 l 0,0.0527 c -2e-5,0.0351 0.017,0.0527 0.0511,0.0527 l 0,0.10374 0,0.0527 0.0527,0 0,0.0527 0,0.0527 0,0.0511 0.0527,0.0527 0,0.10534 0,0.0527 c 0.0351,0.0341 0.0526,0.0687 0.0527,0.10375 l 0,0.0527 0,0.0527 0,0.0511 0,0.10534 0,0.0527 0,0.0511 0,0.0527 0,0.10534 0,0.0527 0,0.10375 0,0.10535 0,0.0511 0,0.10534 0,0.0527 c -3e-5,0.0341 -0.0176,0.0686 -0.0527,0.10374 l 0,0.0527 0,0.10535 c -2e-5,0.0341 -0.0176,0.0511 -0.0527,0.0511 l 0,0.10535 0,0.10374 c -0.0351,3e-5 -0.0527,0.0176 -0.0527,0.0527 -3e-5,2e-5 -3e-5,2e-5 0,0 l 0,0.10534 c -0.0341,2e-5 -0.0511,0.017 -0.0511,0.0511 -2e-5,3e-5 -2e-5,3e-5 0,0 -2e-5,0.0351 -0.0176,0.0703 -0.0527,0.10535 l 0,0.0527 -0.0527,0.0527 c -0.31393,0.66188 -0.81936,1.18487 -1.5163,1.56898 l -0.10535,0 c -2e-5,0.0341 -0.0176,0.0511 -0.0527,0.0511 -2e-5,2e-5 -2e-5,2e-5 0,0 -0.0341,2e-5 -0.0687,0.0176 -0.10375,0.0527 l -0.0527,0 c -0.0351,2e-5 -0.0612,0.009 -0.0782,0.0263 -0.0171,0.0176 -0.0256,0.0264 -0.0255,0.0263 l -0.0527,0 c -0.0351,2e-5 -0.0615,0.009 -0.079,0.0263 -0.0176,0.0176 -0.0264,0.0264 -0.0263,0.0263 l -0.0511,0 -0.0527,0 c -0.0351,0.0341 -0.0703,0.0511 -0.10534,0.0511 l -0.0527,0 -0.10375,0 c -0.0351,2e-5 -0.0615,0.009 -0.079,0.0263 -0.0176,0.0176 -0.0264,0.0264 -0.0263,0.0263 l -0.0511,0 -0.10534,0 -0.10375,0 -0.0527,0 -0.10534,0 -3.29438,0 0.15642,0 0.0527,0 0.10375,0 0.0527,0 c 0.0702,2e-5 0.12288,0.0176 0.15802,0.0527 l 0.15642,0 0.0527,0 0.10374,0 c 0.0351,2e-5 0.0614,0.009 0.079,0.0263 0.0175,0.0176 0.0433,0.0264 0.0774,0.0263 l 0.15802,0 c 2.96342,0.59271 4.74149,2.31864 5.3342,5.17779 l 0,0.0511 0,0.10534 c -2e-5,0.0351 0.009,0.0615 0.0263,0.079 0.0175,0.0176 0.0263,0.0264 0.0263,0.0263 l 0,0.0511 0,0.10535 0,0.0527 c -2e-5,0.0341 0.009,0.0599 0.0263,0.0774 0.0175,0.0176 0.0263,0.0264 0.0263,0.0263 l 0,0.0527 0,0.15642 0,0.57619 c -3e-5,1.84725 -0.64513,3.41596 -1.93529,4.70614 -1.29021,1.29019 -2.8419,1.93529 -4.65506,1.93528 z"
               style="letter-spacing:-17.92043114px;fill:#ffffff"
               id="path21824"
               inkscape:connector-curvature="0" />
            <path
               d="m -167.27395,374.07746 c -10e-6,-0.24366 0.009,-0.4876 0.0263,-0.73182 0.0175,-0.24419 0.0439,-0.48866 0.079,-0.73341 0.24367,-2.47502 1.32423,-4.58401 3.2417,-6.32699 1.91852,-1.70888 4.13285,-2.56333 6.64302,-2.56335 0.90657,2e-5 1.68228,0.32244 2.32713,0.96724 0.64481,0.64485 0.96722,1.43812 0.96724,2.3798 -2e-5,0.8715 -0.30514,1.60358 -0.91537,2.19625 -0.61026,0.59271 -1.35113,0.90661 -2.22258,0.94171 l -0.15642,0 c -1.95259,2e-5 -3.05125,0.95875 -3.29597,2.87619 -0.0341,0.34903 -0.0511,0.64538 -0.0511,0.88903 -1e-5,0.24476 -0.0176,0.45438 -0.0527,0.62887 -0.2788,2.54528 -1.3599,4.6548 -3.2433,6.32858 -1.91747,1.70785 -4.13127,2.56177 -6.64141,2.56176 -0.9066,1e-5 -1.68258,-0.33118 -2.32793,-0.99358 -0.64537,-0.66238 -0.96805,-1.44686 -0.96804,-2.35346 -10e-6,-0.87147 0.33145,-1.62989 0.99437,-2.27526 0.66292,-0.64535 1.43011,-0.98505 2.3016,-1.01912 1.98768,2e-5 3.0858,-0.92413 3.29437,-2.77244 z m 13.02267,2.40534 c 0.9768,-0.31389 1.89243,-0.7757 2.74691,-1.38543 0.85442,-0.6097 1.58651,-1.32449 2.19625,-2.14437 0.60968,-0.81986 1.08905,-1.72645 1.43809,-2.71978 0.34899,-0.99329 0.5235,-2.04805 0.52353,-3.16429 -3e-5,-2.82403 -1.01117,-5.19505 -3.03341,-7.11307 -2.0223,-1.91796 -4.41088,-2.8594 -7.16574,-2.82432 -3.94028,0.0352 -7.44428,1.36045 -10.51199,3.97592 -3.03368,2.61445 -4.88198,5.80454 -5.54489,9.57028 -1.01088,0.31392 -1.92598,0.78477 -2.74531,1.41256 -0.81934,0.62782 -1.53413,1.35139 -2.14438,2.17071 -0.61024,0.81935 -1.0811,1.73445 -1.41256,2.74531 -0.33145,1.01088 -0.49718,2.05687 -0.49719,3.13796 1e-5,2.79001 0.99385,5.14374 2.98154,7.06119 1.95257,1.91747 4.32386,2.8762 7.11387,2.8762 4.00942,-0.0351 7.51341,-1.34287 10.51199,-3.92325 3.03365,-2.64953 4.88141,-5.87474 5.54329,-9.67562 z"
               style="font-variant:normal;font-stretch:normal;text-align:start;line-height:125%;letter-spacing:-5.01010036px;writing-mode:lr-tb;text-anchor:start;fill:#ffffff;font-family:Baubau;-inkscape-font-specification:Baubau"
               id="path21826"
               inkscape:connector-curvature="0" />
            <path
               d="m -133.79382,390.08167 c 2.71975,0 5.05592,-0.97629 7.00852,-2.92887 1.95255,-1.95257 2.92884,-4.28874 2.92887,-7.00852 -3e-5,-1.74295 -0.43577,-3.36406 -1.30722,-4.86336 1.39391,-0.90657 2.50932,-2.08344 3.34625,-3.53059 0.83686,-1.44712 1.25531,-3.05973 1.25534,-4.83782 -3e-5,-2.71974 -0.97632,-5.05592 -2.92886,-7.00852 -1.95261,-1.95255 -4.28878,-2.92883 -7.00853,-2.92887 l -3.87057,0 c -0.69699,-1.95254 -1.91695,-3.53907 -3.65988,-4.7596 -1.74403,-1.25557 -3.64447,-1.88337 -5.70131,-1.88341 -2.7549,4e-5 -5.10863,0.97633 -7.0612,2.92886 -1.91746,1.91856 -2.87619,4.25474 -2.87619,7.00853 l 0,13.38978 c 0.0351,4.56701 1.65623,8.43705 4.86335,11.61011 3.2784,3.20818 7.16653,4.81228 11.66438,4.81228 z m -3.34705,-6.59035 c -2.71979,1e-5 -5.03867,-0.95872 -6.95665,-2.87619 -1.918,-1.91745 -2.91158,-4.23607 -2.98074,-6.95585 l 0.0527,0 -0.0527,-0.10535 0,-13.28443 c 0,-0.90656 0.33119,-1.68227 0.99358,-2.32713 0.66238,-0.6448 1.44687,-0.96721 2.35347,-0.96725 0.90658,4e-5 1.68229,0.32245 2.32713,0.96725 0.64481,0.64486 0.96723,1.42057 0.96724,2.32713 l 0,3.34704 9.93739,0 c 0.90657,3e-5 1.68254,0.32271 2.32793,0.96804 0.64533,0.64539 0.96801,1.42137 0.96804,2.32793 -3e-5,0.90662 -0.32271,1.68233 -0.96804,2.32713 -0.64539,0.64485 -1.42136,0.96727 -2.32793,0.96725 l -9.93739,0 0,3.45239 c 0.1745,2.05687 1.27315,3.08529 3.29597,3.08528 l 0,0.10534 3.34705,0 c 0.90657,2e-5 1.68228,0.32243 2.32713,0.96725 0.6448,0.64484 0.96722,1.42055 0.96724,2.32713 -2e-5,0.9066 -0.32244,1.69108 -0.96724,2.35346 -0.64485,0.6624 -1.42056,0.99359 -2.32713,0.99358 z"
               style="letter-spacing:-7.80913258px;fill:#ffffff"
               id="path21828"
               inkscape:connector-curvature="0" />
            <path
               d="m -110.21862,356.97512 c -4.53297,4e-5 -8.42083,1.62142 -11.66358,4.86415 -3.24277,3.24279 -4.86415,7.14768 -4.86415,11.71466 0,4.53297 1.62138,8.42083 4.86415,11.66359 3.24275,3.24276 7.13061,4.86415 11.66358,4.86415 4.56699,0 8.47187,-1.62139 11.714659,-4.86415 3.242735,-3.24276 4.864116,-7.13062 4.864149,-11.66359 -3.3e-5,-4.56698 -1.621414,-8.47187 -4.864149,-11.71466 -3.242789,-3.24273 -7.147669,-4.86411 -11.714659,-4.86415 z m 0,13.23177 c -0.90661,2e-5 -1.68258,0.3227 -2.32793,0.96804 -0.64537,0.64538 -0.96805,1.43838 -0.96804,2.379 -1e-5,0.90661 0.32267,1.68258 0.96804,2.32793 0.64535,0.64538 1.42132,0.96806 2.32793,0.96804 0.94062,2e-5 1.73362,-0.32266 2.379,-0.96804 0.64535,-0.64535 0.96803,-1.42132 0.96805,-2.32793 -2e-5,-0.94062 -0.3227,-1.73362 -0.96805,-2.379 -0.64538,-0.64534 -1.43838,-0.96802 -2.379,-0.96804 z m 0,-6.59035 c 2.71975,3e-5 5.05593,0.97632 7.00852,2.92887 1.95256,1.9526 2.92884,4.28877 2.92887,7.00852 -3e-5,2.71979 -0.97631,5.05596 -2.92887,7.00853 -1.95259,1.95258 -4.28877,2.92887 -7.00852,2.92886 -2.71979,1e-5 -5.05596,-0.97628 -7.00853,-2.92886 -1.95258,-1.95257 -2.92887,-4.28874 -2.92886,-7.00853 -1e-5,-2.71975 0.97628,-5.05592 2.92886,-7.00852 1.95257,-1.95255 4.28874,-2.92884 7.00853,-2.92887 z"
               style="font-variant:normal;font-stretch:normal;text-align:start;line-height:125%;letter-spacing:-5.01010036px;writing-mode:lr-tb;text-anchor:start;fill:#ffffff;font-family:Baubau;-inkscape-font-specification:Baubau"
               id="path21830"
               inkscape:connector-curvature="0" />
            <path
               d="m -80.497337,376.8499 3.347045,0 c 0.906571,2e-5 1.68228,0.32243 2.327131,0.96725 0.644806,0.64484 0.96722,1.42055 0.967243,2.32713 -2.3e-5,0.9066 -0.322437,1.69108 -0.967243,2.35346 -0.644851,0.6624 -1.42056,0.99359 -2.327131,0.99358 l -3.347045,0 c -2.719788,1e-5 -5.05596,-0.97628 -7.008525,-2.92886 -1.952584,-1.95257 -2.928871,-4.28874 -2.928864,-7.00853 -7e-6,-2.71975 0.97628,-5.05592 2.928864,-7.00852 1.952565,-1.95255 4.288737,-2.92884 7.008525,-2.92887 l 3.347045,0 c 0.906571,3e-5 1.68228,0.32271 2.327131,0.96804 0.644806,0.64539 0.96722,1.42137 0.967243,2.32793 -2.3e-5,0.90662 -0.322437,1.68233 -0.967243,2.32713 -0.644851,0.64485 -1.42056,0.96727 -2.327131,0.96725 l -3.347045,0 c -0.906607,2e-5 -1.682582,0.3227 -2.327929,0.96804 -0.645374,0.64538 -0.968054,1.43838 -0.968041,2.379 -1.3e-5,0.90661 0.322667,1.68258 0.968041,2.32793 0.645347,0.64538 1.421322,0.96806 2.327929,0.96804 z m 10.72108,-3.29597 c 1.708874,-1.91744 2.563325,-4.13125 2.563354,-6.64142 -2.9e-5,-2.71974 -0.976317,-5.05592 -2.928864,-7.00852 -1.952601,-1.95255 -4.288774,-2.92883 -7.008525,-2.92887 l -3.347045,0 c -4.532968,4e-5 -8.420826,1.62142 -11.663584,4.86415 -3.242768,3.24279 -4.864149,7.14768 -4.864149,11.71466 0,4.53297 1.621381,8.42083 4.864149,11.66359 3.242758,3.24276 7.130616,4.86415 11.663584,4.86415 l 3.347045,0 c 2.754866,0 5.091038,-0.95873 7.008525,-2.8762 1.952547,-1.95257 2.928835,-4.3063 2.928864,-7.06119 -2.9e-5,-2.54526 -0.85448,-4.74204 -2.563354,-6.59035 z"
               style="font-variant:normal;font-stretch:normal;text-align:start;line-height:125%;letter-spacing:-5.01010036px;writing-mode:lr-tb;text-anchor:start;fill:#ffffff;font-family:Baubau;-inkscape-font-specification:Baubau"
               id="path21832"
               inkscape:connector-curvature="0" />
            <path
               d="m -47.607764,390.08167 c 2.754862,0 5.091035,-0.95873 7.008525,-2.8762 1.952544,-1.95257 2.928831,-4.3063 2.928864,-7.06119 -3.3e-5,-2.58037 -0.853952,-4.77715 -2.561759,-6.59035 1.707807,-1.91744 2.561726,-4.13125 2.561759,-6.64142 -3.3e-5,-2.71974 -0.97632,-5.05592 -2.928864,-7.00852 -1.952605,-1.95255 -4.288777,-2.92883 -7.008525,-2.92887 -1.28968,4e-5 -2.510172,0.22668 -3.66148,0.67995 -0.557594,-2.05682 -1.742971,-3.80031 -3.556136,-5.23046 -1.707853,-1.39496 -3.712567,-2.09246 -6.014147,-2.0925 -2.754896,4e-5 -5.108625,0.97633 -7.061197,2.92886 -1.917463,1.91856 -2.876193,4.25474 -2.876193,7.00853 l 0,19.87478 c 0,2.79001 0.95873,5.14374 2.876193,7.06119 1.917457,1.91747 4.271187,2.8762 7.061197,2.8762 2.510138,0 4.706917,-0.8369 6.590343,-2.51069 1.917444,1.67379 4.131248,2.51069 6.64142,2.51069 z m -9.93739,-19.87478 3.29597,0 c 0.940625,2e-5 1.733625,-0.3224 2.379004,-0.96725 0.645342,-0.6448 0.968022,-1.42051 0.968042,-2.32713 -2e-5,-0.90656 0.322394,-1.68254 0.967243,-2.32793 0.644808,-0.64533 1.420517,-0.96801 2.327131,-0.96804 0.906567,3e-5 1.682542,0.32271 2.327928,0.96804 0.645335,0.64539 0.968015,1.42137 0.968042,2.32793 -2.7e-5,2.54529 -0.83692,4.75909 -2.510684,6.64142 1.673764,1.84831 2.510657,4.04509 2.510684,6.59035 -2.7e-5,0.9066 -0.322707,1.69108 -0.968042,2.35346 -0.645386,0.6624 -1.421361,0.99359 -2.327928,0.99358 -0.906614,1e-5 -1.682323,-0.33118 -2.327131,-0.99358 -0.644849,-0.66238 -0.967263,-1.44686 -0.967243,-2.35346 -2e-5,-0.90658 -0.3227,-1.68229 -0.968042,-2.32713 -0.645379,-0.64482 -1.438379,-0.96723 -2.379004,-0.96725 l -3.29597,0 0,3.29438 c -1.3e-5,0.9066 -0.322427,1.69108 -0.967243,2.35346 -0.644841,0.6624 -1.42055,0.99359 -2.32713,0.99358 -0.906601,1e-5 -1.691089,-0.33118 -2.353466,-0.99358 -0.662394,-0.66238 -0.993586,-1.44686 -0.99358,-2.35346 l 0,-19.87478 c -6e-6,-0.90656 0.331186,-1.68227 0.99358,-2.32713 0.662377,-0.6448 1.446865,-0.96721 2.353466,-0.96725 0.90658,4e-5 1.682289,0.32245 2.32713,0.96725 0.644816,0.64486 0.96723,1.42057 0.967243,2.32713 l 0,3.34704 0,3.29597 z"
               style="font-variant:normal;font-stretch:normal;text-align:start;line-height:125%;letter-spacing:-5.01010036px;writing-mode:lr-tb;text-anchor:start;fill:#ffffff;font-family:Baubau;-inkscape-font-specification:Baubau"
               id="path21834"
               inkscape:connector-curvature="0" />
          </g>
          <path
             style="fill:none;stroke:#ffffff;stroke-width:0.60270822;stroke-opacity:1"
             d="m 2885.7162,-993.50515 0,0.1977 110.2099,0 0,-0.1977 z"
             id="path21836"
             inkscape:connector-curvature="0"
             sodipodi:nodetypes="ccccc" />
          <path
             sodipodi:nodetypes="ccccc"
             inkscape:connector-curvature="0"
             id="path21838"
             d="m 3000.4063,-993.50575 0,0.1989 110.7899,0 0,-0.1989 z"
             style="fill:none;stroke:#ffffff;stroke-width:0.6014924;stroke-opacity:1" />
          <path
             sodipodi:nodetypes="ccccc"
             inkscape:connector-curvature="0"
             id="path21840"
             d="m 2885.8626,-950.87605 0,0.1977 109.969,0 0,-0.1977 z"
             style="fill:none;stroke:#ffffff;stroke-width:0.60268432;stroke-opacity:1" />
          <path
             style="fill:none;stroke:#ffffff;stroke-width:0.60146856;stroke-opacity:1"
             d="m 3000.4484,-950.87665 0,0.1989 110.808,0 0,-0.1989 z"
             id="path21842"
             inkscape:connector-curvature="0"
             sodipodi:nodetypes="ccccc" />
          <g
             transform="matrix(0,1.314481,-1.314481,0,1639.107,-49.912716)"
             id="g21844"
             style="stroke:#ffffff">
            <path
               sodipodi:nodetypes="ccccc"
               inkscape:connector-curvature="0"
               id="path21846"
               d="m -715.93036,-946.96872 0,0.15073 12.85713,0 0,-0.15073 z"
               style="fill:none;stroke:#ffffff;stroke-width:0.45817104;stroke-opacity:1" />
            <path
               style="fill:none;stroke:#ffffff;stroke-width:0.45817104;stroke-opacity:1"
               d="m -699.66854,-946.96872 0,0.15073 12.66018,0 0,-0.15073 z"
               id="path21848"
               inkscape:connector-curvature="0"
               sodipodi:nodetypes="ccccc" />
          </g>
          <g
             id="g21850"
             transform="matrix(0,1.314481,-1.314481,0,1869.0352,-49.912716)"
             style="stroke:#ffffff">
            <path
               style="fill:none;stroke:#ffffff;stroke-width:0.45817104;stroke-opacity:1"
               d="m -715.99601,-946.96872 0,0.15073 12.79148,0 0,-0.15073 z"
               id="path21852"
               inkscape:connector-curvature="0"
               sodipodi:nodetypes="ccccc" />
            <path
               sodipodi:nodetypes="ccccc"
               inkscape:connector-curvature="0"
               id="path21854"
               d="m -699.79984,-946.96872 0,0.15073 12.85713,0 0,-0.15073 z"
               style="fill:none;stroke:#ffffff;stroke-width:0.45817104;stroke-opacity:1" />
          </g>
          <g
             transform="matrix(0.96651217,0,0,0.96651217,3146.8578,-1330.0557)"
             style="fill:none;stroke:#ffffff"
             id="g21856">
            <path
               style="stroke:#ffffff;stroke-width:1;stroke-miterlimit:4;stroke-opacity:1"
               d="m -274.64532,390.31506 4.55712,0 0,4.55713 -4.55712,0 z"
               id="path21858"
               inkscape:connector-curvature="0" />
            <path
               style="stroke:#ffffff;stroke-width:1;stroke-miterlimit:4;stroke-opacity:1"
               d="m -274.64532,368.26208 4.55712,0 0,4.55713 -4.55712,0 z"
               id="path21860"
               inkscape:connector-curvature="0" />
            <path
               style="stroke:#ffffff;stroke-width:1;stroke-miterlimit:4;stroke-opacity:1"
               d="m -274.64532,346.20908 4.55712,0 0,4.55712 -4.55712,0 z"
               id="path21862"
               inkscape:connector-curvature="0" />
            <path
               style="stroke:#ffffff;stroke-width:1;stroke-miterlimit:4;stroke-opacity:1"
               d="m -156.12938,346.20908 4.55712,0 0,4.55712 -4.55712,0 z"
               id="path21864"
               inkscape:connector-curvature="0" />
            <path
               style="stroke:#ffffff;stroke-width:1;stroke-miterlimit:4;stroke-opacity:1"
               d="m -156.12938,390.31506 4.55712,0 0,4.55713 -4.55712,0 z"
               id="path21866"
               inkscape:connector-curvature="0" />
            <path
               style="stroke:#ffffff;stroke-width:1;stroke-miterlimit:4;stroke-opacity:1"
               d="m -36.760159,390.31506 4.557123,0 0,4.55713 -4.557123,0 z"
               id="path21868"
               inkscape:connector-curvature="0" />
            <path
               style="stroke:#ffffff;stroke-width:1;stroke-miterlimit:4;stroke-opacity:1"
               d="m -36.760159,368.26208 4.557123,0 0,4.55713 -4.557123,0 z"
               id="path21870"
               inkscape:connector-curvature="0" />
            <path
               style="stroke:#ffffff;stroke-width:1;stroke-miterlimit:4;stroke-opacity:1"
               d="m -36.760159,346.20908 4.557123,0 0,4.55712 -4.557123,0 z"
               id="path21872"
               inkscape:connector-curvature="0" />
          </g>
          <path
             style="fill:#ffffff;fill-opacity:1;stroke:#666666;stroke-width:0.6041038;stroke-miterlimit:4;stroke-opacity:1"
             d="m 3000.0214,-971.90095 c 0,1.0018 -0.8122,1.8139 -1.814,1.8139 -1.0018,0 -1.8139,-0.8121 -1.8139,-1.8139 0,-1.0018 0.8121,-1.8139 1.8139,-1.8139 1.0018,0 1.814,0.8121 1.814,1.8139 z"
             id="path21874"
             inkscape:connector-curvature="0" />
          <path
             style="fill:#666666;fill-opacity:1;stroke:none"
             d="m 2996.3918,-972.21655 0,0.6041 -2.1127,0 0,-0.6041 z"
             id="path21876"
             inkscape:connector-curvature="0" />
          <path
             style="fill:#666666;fill-opacity:1;stroke:none"
             d="m 2998.5229,-973.71655 -0.6041,0 0,-2.1127 0.6041,0 z"
             id="path21878"
             inkscape:connector-curvature="0" />
          <path
             style="fill:#666666;fill-opacity:1;stroke:none"
             d="m 3000.0231,-971.58545 0,-0.6041 2.1126,0 0,0.6041 z"
             id="path21880"
             inkscape:connector-curvature="0" />
          <path
             style="fill:#666666;fill-opacity:1;stroke:none"
             d="m 2997.8919,-970.08545 0.6041,0 0,2.1127 -0.6041,0 z"
             id="path21882"
             inkscape:connector-curvature="0" />
        </g>
        <g
           style="font-size:25.64512634px;font-style:normal;font-variant:normal;font-weight:200;font-stretch:normal;text-align:start;line-height:125%;letter-spacing:0px;word-spacing:0px;writing-mode:lr-tb;text-anchor:start;fill:#ffffff;fill-opacity:1;stroke:none;font-family:HelveticaNeueLT Std Thin;-inkscape-font-specification:'HelveticaNeueLT Std Thin, Ultra-Light'"
           id="text21884">
          <path
             d="m -5899.1891,-3388.6799 c 0.068,1.5419 0.592,2.7087 1.5708,3.5005 0.9787,0.7918 2.2332,1.1893 3.7633,1.1925 1.2246,0.026 2.3722,-0.225 3.4428,-0.7534 1.0707,-0.5283 1.6413,-1.4911 1.7118,-2.8882 -0.031,-1.3426 -0.4819,-2.2733 -1.3527,-2.7921 -0.8709,-0.5187 -1.9758,-0.8788 -3.3146,-1.0803 -1.114,-0.1912 -2.1109,-0.469 -2.9908,-0.8334 -0.88,-0.3644 -1.3448,-1.0525 -1.3945,-2.0644 0.046,-0.9248 0.4541,-1.582 1.2246,-1.9715 0.7704,-0.3894 1.6273,-0.5786 2.5708,-0.5674 1.1257,-0.01 2.0479,0.2528 2.7665,0.7854 0.7186,0.5327 1.0957,1.3907 1.1316,2.5741 l 0.9745,0 c -0.028,-1.4879 -0.491,-2.5639 -1.3881,-3.228 -0.897,-0.6641 -2.0585,-0.99 -3.4845,-0.9777 -1.1748,-0.023 -2.2487,0.2147 -3.2216,0.7116 -0.9729,0.4969 -1.489,1.388 -1.5483,2.6735 0.047,1.3052 0.5177,2.2081 1.4137,2.7087 0.8959,0.5006 1.9378,0.8458 3.1254,1.0354 1.1754,0.1886 2.2098,0.4718 3.1031,0.8495 0.8932,0.3777 1.3634,1.1033 1.4104,2.1766 -0.067,1.115 -0.5487,1.8662 -1.4457,2.2535 -0.897,0.3874 -1.8085,0.568 -2.7344,0.5418 -1.2154,-0.01 -2.2209,-0.3446 -3.0164,-1.0098 -0.7956,-0.6651 -1.2433,-1.6108 -1.3432,-2.8369 z"
             id="path25571"
             inkscape:connector-curvature="0" />
          <path
             d="m -5876.353,-3397.4761 -1.0771,0 -4.4622,12.0531 -0.051,0 -4.7699,-12.0531 -1.1284,0 5.3085,13.1814 1.2053,0 z"
             id="path25573"
             inkscape:connector-curvature="0" />
          <path
             d="m -5869.8812,-3396.9376 c 1.6135,0.051 2.8167,0.6225 3.6095,1.715 0.7929,1.0926 1.1882,2.4016 1.1861,3.9269 5e-4,1.5376 -0.3981,2.854 -1.1957,3.9493 -0.7977,1.0952 -1.9976,1.668 -3.5999,1.7182 -1.5542,-0.042 -2.7285,-0.5989 -3.5229,-1.6701 -0.7945,-1.0712 -1.1931,-2.4037 -1.1957,-3.9974 0,-1.458 0.3868,-2.7477 1.1668,-3.8692 0.78,-1.1214 1.964,-1.7123 3.5518,-1.7727 z m 4.8212,-0.5385 0,2.744 -0.051,0 c -0.3846,-0.9911 -1.0129,-1.7465 -1.8849,-2.2664 -0.8719,-0.5198 -1.8336,-0.7816 -2.885,-0.7853 -1.8641,0.052 -3.2777,0.6977 -4.241,1.9361 -0.9633,1.2385 -1.4473,2.7558 -1.4521,4.552 0,1.8758 0.46,3.4198 1.3944,4.6321 0.9344,1.2122 2.3673,1.8395 4.2987,1.8817 1.1172,0 2.0756,-0.2597 2.8754,-0.7694 0.7998,-0.5097 1.4313,-1.2534 1.8945,-2.2311 l 0.051,0 0,3.0261 c 0.028,0.3318 -0.036,0.8621 -0.1909,1.5909 -0.1548,0.7289 -0.5661,1.4092 -1.2338,2.0412 -0.6677,0.6319 -1.7571,0.9685 -3.2683,1.0096 -1.1048,0.01 -2.0494,-0.2409 -2.8337,-0.7533 -0.7843,-0.5124 -1.2417,-1.3469 -1.372,-2.5036 l -0.9745,0 c 0.1058,1.5061 0.6315,2.5715 1.5771,3.196 0.9457,0.6246 2.1382,0.927 3.5775,0.9072 1.8625,0 3.198,-0.3867 4.0063,-1.1749 0.8082,-0.7882 1.3002,-1.6433 1.476,-2.5654 0.1757,-0.9221 0.246,-1.5816 0.2108,-1.9785 l 0,-12.489 z"
             id="path25575"
             inkscape:connector-curvature="0" />
          <path
             d="m -5852.8924,-3384.2947 0,-13.1814 -0.9746,0 0,13.1814 z m 0,-15.6689 0,-2.6415 -0.9746,0 0,2.6415 z"
             id="path25577"
             inkscape:connector-curvature="0" />
          <path
             d="m -5844.9433,-3397.4761 -2.8722,0 0,-4.1032 -0.9745,0 0,4.1032 -2.4363,0 0,0.8463 2.4363,0 0,9.2065 c -0.011,1.4398 0.3633,2.3491 1.1219,2.7279 0.7587,0.3788 1.6584,0.5124 2.6992,0.4007 l 0,-0.8463 c -0.9265,0.06 -1.6317,-0.048 -2.1157,-0.3237 -0.4841,-0.2762 -0.7277,-0.9291 -0.7309,-1.9586 l 0,-9.2065 2.8722,0 z"
             id="path25579"
             inkscape:connector-curvature="0" />
          <path
             d="m -5842.436,-3396.7324 0.9745,0 0,-5.8727 -0.9745,0 z"
             id="path25581"
             inkscape:connector-curvature="0" />
          <path
             d="m -5838.4322,-3388.6799 c 0.068,1.5419 0.592,2.7087 1.5708,3.5005 0.9787,0.7918 2.2332,1.1893 3.7633,1.1925 1.2246,0.026 2.3722,-0.225 3.4429,-0.7534 1.0706,-0.5283 1.6412,-1.4911 1.7117,-2.8882 -0.031,-1.3426 -0.4819,-2.2733 -1.3527,-2.7921 -0.8709,-0.5187 -1.9757,-0.8788 -3.3146,-1.0803 -1.114,-0.1912 -2.1109,-0.469 -2.9908,-0.8334 -0.88,-0.3644 -1.3448,-1.0525 -1.3945,-2.0644 0.046,-0.9248 0.4542,-1.582 1.2246,-1.9715 0.7704,-0.3894 1.6273,-0.5786 2.5709,-0.5674 1.1257,-0.01 2.0478,0.2528 2.7664,0.7854 0.7186,0.5327 1.0958,1.3907 1.1316,2.5741 l 0.9745,0 c -0.028,-1.4879 -0.491,-2.5639 -1.3881,-3.228 -0.897,-0.6641 -2.0585,-0.99 -3.4844,-0.9777 -1.1749,-0.023 -2.2488,0.2147 -3.2217,0.7116 -0.9729,0.4969 -1.489,1.388 -1.5483,2.6735 0.046,1.3052 0.5177,2.2081 1.4137,2.7087 0.896,0.5006 1.9378,0.8458 3.1255,1.0354 1.1753,0.1886 2.2097,0.4718 3.103,0.8495 0.8933,0.3777 1.3634,1.1033 1.4104,2.1766 -0.067,1.115 -0.5487,1.8662 -1.4457,2.2535 -0.897,0.3874 -1.8085,0.568 -2.7344,0.5418 -1.2154,-0.01 -2.2209,-0.3446 -3.0164,-1.0098 -0.7956,-0.6651 -1.2433,-1.6108 -1.3432,-2.8369 z"
             id="path25583"
             inkscape:connector-curvature="0" />
          <path
             d="m -5817.5106,-3397.4761 -0.9745,0 0,13.1814 0.9745,0 0,-7.2062 c 0.046,-0.9595 0.1849,-1.7139 0.4167,-2.2631 0.2319,-0.5492 0.5888,-1.06 1.0707,-1.5323 0.6037,-0.5663 1.2299,-0.9403 1.8785,-1.122 0.6486,-0.1816 1.2363,-0.235 1.7631,-0.1602 l 0,-0.9745 c -1.2219,-0.027 -2.2979,0.2452 -3.2281,0.8174 -0.9301,0.5722 -1.5381,1.2999 -1.824,2.183 l -0.077,0 z"
             id="path25585"
             inkscape:connector-curvature="0" />
          <path
             d="m -5811.988,-3390.8854 c 0.01,1.9255 0.5348,3.5433 1.5739,4.8533 1.0391,1.31 2.5319,1.9917 4.4782,2.0452 1.9464,-0.053 3.4391,-0.7352 4.4782,-2.0452 1.0392,-1.31 1.5638,-2.9278 1.574,-4.8533 -0.01,-1.9255 -0.5348,-3.5432 -1.5739,-4.8533 -1.0392,-1.31 -2.5319,-1.9917 -4.4783,-2.0451 -1.9463,0.053 -3.4391,0.7351 -4.4782,2.0451 -1.0391,1.3101 -1.5638,2.9278 -1.5739,4.8533 z m 0.9745,0 c 0,-1.6322 0.4375,-3.0351 1.2982,-4.2089 0.8607,-1.1738 2.1205,-1.7882 3.7794,-1.8433 1.6589,0.055 2.9187,0.6695 3.7794,1.8433 0.8607,1.1738 1.2935,2.5767 1.2983,4.2089 0,1.6322 -0.4376,3.0352 -1.2983,4.209 -0.8607,1.1737 -2.1205,1.7882 -3.7794,1.8432 -1.6589,-0.055 -2.9187,-0.6695 -3.7794,-1.8432 -0.8607,-1.1738 -1.2934,-2.5768 -1.2982,-4.209 z"
             id="path25587"
             inkscape:connector-curvature="0" />
          <path
             d="m -5786.6993,-3393.3986 c -0.172,-1.4954 -0.7576,-2.6013 -1.7567,-3.3178 -0.999,-0.7164 -2.2257,-1.0722 -3.68,-1.0674 -1.9575,0.053 -3.4535,0.7228 -4.4878,2.0099 -1.0344,1.287 -1.5558,2.8738 -1.5644,4.7603 -0.016,1.8972 0.4579,3.5267 1.4201,4.8885 0.9622,1.3619 2.5063,2.0746 4.6321,2.1382 1.45,-0.01 2.6788,-0.4397 3.6865,-1.2919 1.0076,-0.8522 1.6337,-2.0713 1.8784,-3.6576 l -0.9745,0 c -0.1832,1.2256 -0.6822,2.2108 -1.497,2.9556 -0.8148,0.7447 -1.8459,1.1273 -3.0934,1.1476 -1.7038,-0.035 -2.9764,-0.6192 -3.8179,-1.7535 -0.8414,-1.1342 -1.2614,-2.6099 -1.2598,-4.4269 0,-1.5595 0.4376,-2.9219 1.2983,-4.0872 0.8607,-1.1652 2.1205,-1.7774 3.7794,-1.8368 1.2181,0 2.2375,0.2998 3.0582,0.8944 0.8206,0.5947 1.2886,1.4762 1.404,2.6446 z"
             id="path25589"
             inkscape:connector-curvature="0" />
          <path
             d="m -5784.2236,-3384.2947 0.9745,0 0,-4.9751 3.0004,-2.5388 5.6163,7.5139 1.3335,0 -6.1804,-8.2576 5.7701,-4.9238 -1.4105,0 -8.1294,7.001 0,-12.13 -0.9745,0 z"
             id="path25591"
             inkscape:connector-curvature="0" />
          <path
             d="m -5772.9169,-3388.6799 c 0.068,1.5419 0.592,2.7087 1.5707,3.5005 0.9788,0.7918 2.2333,1.1893 3.7634,1.1925 1.2246,0.026 2.3722,-0.225 3.4428,-0.7534 1.0707,-0.5283 1.6413,-1.4911 1.7118,-2.8882 -0.031,-1.3426 -0.4819,-2.2733 -1.3527,-2.7921 -0.8709,-0.5187 -1.9758,-0.8788 -3.3146,-1.0803 -1.114,-0.1912 -2.1109,-0.469 -2.9909,-0.8334 -0.8799,-0.3644 -1.3447,-1.0525 -1.3944,-2.0644 0.046,-0.9248 0.4541,-1.582 1.2245,-1.9715 0.7705,-0.3894 1.6274,-0.5786 2.5709,-0.5674 1.1257,-0.01 2.0479,0.2528 2.7665,0.7854 0.7186,0.5327 1.0957,1.3907 1.1315,2.5741 l 0.9746,0 c -0.028,-1.4879 -0.4911,-2.5639 -1.3881,-3.228 -0.897,-0.6641 -2.0585,-0.99 -3.4845,-0.9777 -1.1748,-0.023 -2.2487,0.2147 -3.2216,0.7116 -0.9729,0.4969 -1.489,1.388 -1.5483,2.6735 0.046,1.3052 0.5177,2.2081 1.4137,2.7087 0.8959,0.5006 1.9378,0.8458 3.1254,1.0354 1.1754,0.1886 2.2098,0.4718 3.1031,0.8495 0.8932,0.3777 1.3634,1.1033 1.4104,2.1766 -0.067,1.115 -0.5487,1.8662 -1.4457,2.2535 -0.897,0.3874 -1.8085,0.568 -2.7344,0.5418 -1.2154,-0.01 -2.2209,-0.3446 -3.0164,-1.0098 -0.7956,-0.6651 -1.2433,-1.6108 -1.3432,-2.8369 z"
             id="path25593"
             inkscape:connector-curvature="0" />
          <path
             d="m -5758.8001,-3402.6051 0,6.1804 0.3078,7.437 0.6154,0 0.3078,-7.437 0,-6.1804 z m 1.2566,18.3104 0,-2.6414 -1.3079,0 0,2.6414 z"
             id="path25595"
             inkscape:connector-curvature="0" />
          <path
             d="m -5752.1384,-3402.6051 0,6.1804 0.3078,7.437 0.6155,0 0.3077,-7.437 0,-6.1804 z m 1.2566,18.3104 0,-2.6414 -1.3078,0 0,2.6414 z"
             id="path25597"
             inkscape:connector-curvature="0" />
          <path
             d="m -5745.4766,-3402.6051 0,6.1804 0.3077,7.437 0.6155,0 0.3077,-7.437 0,-6.1804 z m 1.2566,18.3104 0,-2.6414 -1.3079,0 0,2.6414 z"
             id="path25599"
             inkscape:connector-curvature="0" />
          <path
             d="m -5732.0614,-3378.8067 0.9745,0 0,-25.6448 -0.9745,0 z"
             id="path25601"
             inkscape:connector-curvature="0" />
          <path
             d="m -5720.675,-3388.6799 c 0.068,1.5419 0.592,2.7087 1.5708,3.5005 0.9788,0.7918 2.2332,1.1893 3.7634,1.1925 1.2245,0.026 2.3721,-0.225 3.4428,-0.7534 1.0706,-0.5283 1.6412,-1.4911 1.7118,-2.8882 -0.031,-1.3426 -0.482,-2.2733 -1.3528,-2.7921 -0.8709,-0.5187 -1.9757,-0.8788 -3.3146,-1.0803 -1.1139,-0.1912 -2.1109,-0.469 -2.9908,-0.8334 -0.88,-0.3644 -1.3448,-1.0525 -1.3945,-2.0644 0.046,-0.9248 0.4542,-1.582 1.2246,-1.9715 0.7704,-0.3894 1.6274,-0.5786 2.5709,-0.5674 1.1257,-0.01 2.0478,0.2528 2.7664,0.7854 0.7186,0.5327 1.0958,1.3907 1.1316,2.5741 l 0.9745,0 c -0.028,-1.4879 -0.491,-2.5639 -1.388,-3.228 -0.8971,-0.6641 -2.0586,-0.99 -3.4845,-0.9777 -1.1749,-0.023 -2.2488,0.2147 -3.2217,0.7116 -0.9729,0.4969 -1.489,1.388 -1.5483,2.6735 0.046,1.3052 0.5177,2.2081 1.4137,2.7087 0.896,0.5006 1.9378,0.8458 3.1255,1.0354 1.1754,0.1886 2.2097,0.4718 3.103,0.8495 0.8933,0.3777 1.3634,1.1033 1.4105,2.1766 -0.067,1.115 -0.5487,1.8662 -1.4458,2.2535 -0.897,0.3874 -1.8085,0.568 -2.7343,0.5418 -1.2155,-0.01 -2.221,-0.3446 -3.0165,-1.0098 -0.7955,-0.6651 -1.2433,-1.6108 -1.3432,-2.8369 z"
             id="path25603"
             inkscape:connector-curvature="0" />
          <path
             d="m -5697.8389,-3397.4761 -1.0771,0 -4.4622,12.0531 -0.051,0 -4.7699,-12.0531 -1.1284,0 5.3085,13.1814 1.2053,0 z"
             id="path25605"
             inkscape:connector-curvature="0" />
          <path
             d="m -5691.3671,-3396.9376 c 1.6135,0.051 2.8167,0.6225 3.6095,1.715 0.7929,1.0926 1.1882,2.4016 1.1861,3.9269 5e-4,1.5376 -0.398,2.854 -1.1957,3.9493 -0.7977,1.0952 -1.9976,1.668 -3.5999,1.7182 -1.5542,-0.042 -2.7285,-0.5989 -3.5229,-1.6701 -0.7945,-1.0712 -1.193,-2.4037 -1.1957,-3.9974 0,-1.458 0.3868,-2.7477 1.1668,-3.8692 0.78,-1.1214 1.964,-1.7123 3.5518,-1.7727 z m 4.8213,-0.5385 0,2.744 -0.051,0 c -0.3847,-0.9911 -1.013,-1.7465 -1.8849,-2.2664 -0.872,-0.5198 -1.8336,-0.7816 -2.8851,-0.7853 -1.864,0.052 -3.2777,0.6977 -4.241,1.9361 -0.9633,1.2385 -1.4473,2.7558 -1.4521,4.552 0,1.8758 0.46,3.4198 1.3944,4.6321 0.9344,1.2122 2.3674,1.8395 4.2987,1.8817 1.1172,0 2.0756,-0.2597 2.8755,-0.7694 0.7997,-0.5097 1.4312,-1.2534 1.8945,-2.2311 l 0.051,0 0,3.0261 c 0.028,0.3318 -0.036,0.8621 -0.191,1.5909 -0.1548,0.7289 -0.5661,1.4092 -1.2338,2.0412 -0.6677,0.6319 -1.7571,0.9685 -3.2682,1.0096 -1.1049,0.01 -2.0495,-0.2409 -2.8338,-0.7533 -0.7843,-0.5124 -1.2416,-1.3469 -1.372,-2.5036 l -0.9745,0 c 0.1058,1.5061 0.6315,2.5715 1.5772,3.196 0.9456,0.6246 2.1381,0.927 3.5774,0.9072 1.8626,0 3.198,-0.3867 4.0063,-1.1749 0.8083,-0.7882 1.3003,-1.6433 1.476,-2.5654 0.1757,-0.9221 0.246,-1.5816 0.2109,-1.9785 l 0,-12.489 z"
             id="path25607"
             inkscape:connector-curvature="0" />
          <path
             d="m -5683.2091,-3388.6799 c 0.068,1.5419 0.592,2.7087 1.5708,3.5005 0.9788,0.7918 2.2332,1.1893 3.7634,1.1925 1.2245,0.026 2.3721,-0.225 3.4428,-0.7534 1.0706,-0.5283 1.6412,-1.4911 1.7118,-2.8882 -0.031,-1.3426 -0.4819,-2.2733 -1.3528,-2.7921 -0.8709,-0.5187 -1.9757,-0.8788 -3.3146,-1.0803 -1.1139,-0.1912 -2.1109,-0.469 -2.9908,-0.8334 -0.8799,-0.3644 -1.3448,-1.0525 -1.3944,-2.0644 0.046,-0.9248 0.4541,-1.582 1.2245,-1.9715 0.7704,-0.3894 1.6274,-0.5786 2.5709,-0.5674 1.1257,-0.01 2.0478,0.2528 2.7664,0.7854 0.7186,0.5327 1.0958,1.3907 1.1316,2.5741 l 0.9745,0 c -0.028,-1.4879 -0.491,-2.5639 -1.388,-3.228 -0.8971,-0.6641 -2.0586,-0.99 -3.4845,-0.9777 -1.1749,-0.023 -2.2487,0.2147 -3.2216,0.7116 -0.9729,0.4969 -1.489,1.388 -1.5483,2.6735 0.046,1.3052 0.5177,2.2081 1.4136,2.7087 0.896,0.5006 1.9378,0.8458 3.1255,1.0354 1.1754,0.1886 2.2097,0.4718 3.103,0.8495 0.8933,0.3777 1.3634,1.1033 1.4105,2.1766 -0.067,1.115 -0.5487,1.8662 -1.4458,2.2535 -0.897,0.3874 -1.8085,0.568 -2.7343,0.5418 -1.2155,-0.01 -2.221,-0.3446 -3.0165,-1.0098 -0.7955,-0.6651 -1.2432,-1.6108 -1.3431,-2.8369 z"
             id="path25609"
             inkscape:connector-curvature="0" />
          <path
             d="m -5665.5276,-3397.4761 -2.8722,0 0,-4.1032 -0.9745,0 0,4.1032 -2.4363,0 0,0.8463 2.4363,0 0,9.2065 c -0.011,1.4398 0.3633,2.3491 1.1219,2.7279 0.7587,0.3788 1.6584,0.5124 2.6992,0.4007 l 0,-0.8463 c -0.9265,0.06 -1.6317,-0.048 -2.1157,-0.3237 -0.4841,-0.2762 -0.7277,-0.9291 -0.7309,-1.9586 l 0,-9.2065 2.8722,0 z"
             id="path25611"
             inkscape:connector-curvature="0" />
          <path
             d="m -5664.3282,-3390.8854 c 0.01,1.9255 0.5348,3.5433 1.5739,4.8533 1.0392,1.31 2.5319,1.9917 4.4783,2.0452 1.9463,-0.053 3.439,-0.7352 4.4782,-2.0452 1.0391,-1.31 1.5638,-2.9278 1.5739,-4.8533 -0.01,-1.9255 -0.5348,-3.5432 -1.5739,-4.8533 -1.0392,-1.31 -2.5319,-1.9917 -4.4782,-2.0451 -1.9464,0.053 -3.4391,0.7351 -4.4783,2.0451 -1.0391,1.3101 -1.5638,2.9278 -1.5739,4.8533 z m 0.9745,0 c 0,-1.6322 0.4375,-3.0351 1.2983,-4.2089 0.8607,-1.1738 2.1205,-1.7882 3.7794,-1.8433 1.6588,0.055 2.9186,0.6695 3.7794,1.8433 0.8606,1.1738 1.2934,2.5767 1.2982,4.2089 0,1.6322 -0.4376,3.0352 -1.2982,4.209 -0.8608,1.1737 -2.1206,1.7882 -3.7794,1.8432 -1.6589,-0.055 -2.9187,-0.6695 -3.7794,-1.8432 -0.8608,-1.1738 -1.2935,-2.5768 -1.2983,-4.209 z"
             id="path25613"
             inkscape:connector-curvature="0" />
          <path
             d="m -5639.0395,-3393.3986 c -0.172,-1.4954 -0.7576,-2.6013 -1.7566,-3.3178 -0.9991,-0.7164 -2.2258,-1.0722 -3.6801,-1.0674 -1.9575,0.053 -3.4535,0.7228 -4.4878,2.0099 -1.0343,1.287 -1.5558,2.8738 -1.5643,4.7603 -0.016,1.8972 0.4578,3.5267 1.42,4.8885 0.9623,1.3619 2.5063,2.0746 4.6321,2.1382 1.45,-0.01 2.6788,-0.4397 3.6865,-1.2919 1.0076,-0.8522 1.6337,-2.0713 1.8785,-3.6576 l -0.9745,0 c -0.1833,1.2256 -0.6823,2.2108 -1.4971,2.9556 -0.8147,0.7447 -1.8459,1.1273 -3.0934,1.1476 -1.7037,-0.035 -2.9764,-0.6192 -3.8178,-1.7535 -0.8415,-1.1342 -1.2614,-2.6099 -1.2598,-4.4269 0,-1.5595 0.4375,-2.9219 1.2982,-4.0872 0.8607,-1.1652 2.1205,-1.7774 3.7794,-1.8368 1.2182,0 2.2375,0.2998 3.0582,0.8944 0.8206,0.5947 1.2886,1.4762 1.404,2.6446 z"
             id="path25615"
             inkscape:connector-curvature="0" />
          <path
             d="m -5636.5638,-3384.2947 0.9745,0 0,-4.9751 3.0005,-2.5388 5.6162,7.5139 1.3335,0 -6.1804,-8.2576 5.7701,-4.9238 -1.4105,0 -8.1294,7.001 0,-12.13 -0.9745,0 z"
             id="path25617"
             inkscape:connector-curvature="0" />
          <path
             d="m -5621.9745,-3384.2947 0,-2.6414 -1.3079,0 0,2.6414 z"
             id="path25619"
             inkscape:connector-curvature="0" />
          <path
             d="m -5606.7326,-3393.3986 c -0.1721,-1.4954 -0.7576,-2.6013 -1.7567,-3.3178 -0.9991,-0.7164 -2.2258,-1.0722 -3.68,-1.0674 -1.9576,0.053 -3.4535,0.7228 -4.4879,2.0099 -1.0343,1.287 -1.5558,2.8738 -1.5643,4.7603 -0.016,1.8972 0.4579,3.5267 1.4201,4.8885 0.9622,1.3619 2.5062,2.0746 4.6321,2.1382 1.45,-0.01 2.6788,-0.4397 3.6864,-1.2919 1.0076,-0.8522 1.6338,-2.0713 1.8785,-3.6576 l -0.9745,0 c -0.1833,1.2256 -0.6823,2.2108 -1.497,2.9556 -0.8148,0.7447 -1.8459,1.1273 -3.0934,1.1476 -1.7038,-0.035 -2.9764,-0.6192 -3.8179,-1.7535 -0.8415,-1.1342 -1.2614,-2.6099 -1.2598,-4.4269 0,-1.5595 0.4376,-2.9219 1.2983,-4.0872 0.8607,-1.1652 2.1205,-1.7774 3.7794,-1.8368 1.2181,0 2.2375,0.2998 3.0581,0.8944 0.8206,0.5947 1.2887,1.4762 1.4041,2.6446 z"
             id="path25621"
             inkscape:connector-curvature="0" />
          <path
             d="m -5604.9237,-3390.8854 c 0.01,1.9255 0.5348,3.5433 1.574,4.8533 1.0391,1.31 2.5318,1.9917 4.4782,2.0452 1.9463,-0.053 3.439,-0.7352 4.4782,-2.0452 1.0391,-1.31 1.5638,-2.9278 1.574,-4.8533 -0.01,-1.9255 -0.5349,-3.5432 -1.574,-4.8533 -1.0392,-1.31 -2.5319,-1.9917 -4.4782,-2.0451 -1.9464,0.053 -3.4391,0.7351 -4.4782,2.0451 -1.0392,1.3101 -1.5638,2.9278 -1.574,4.8533 z m 0.9745,0 c 0,-1.6322 0.4376,-3.0351 1.2983,-4.2089 0.8607,-1.1738 2.1205,-1.7882 3.7794,-1.8433 1.6589,0.055 2.9187,0.6695 3.7794,1.8433 0.8607,1.1738 1.2934,2.5767 1.2983,4.2089 0,1.6322 -0.4376,3.0352 -1.2983,4.209 -0.8607,1.1737 -2.1205,1.7882 -3.7794,1.8432 -1.6589,-0.055 -2.9187,-0.6695 -3.7794,-1.8432 -0.8607,-1.1738 -1.2935,-2.5768 -1.2983,-4.209 z"
             id="path25623"
             inkscape:connector-curvature="0" />
          <path
             d="m -5590.5083,-3384.2947 0.9745,0 0,-7.796 c 0.057,-1.6829 0.5198,-2.9139 1.388,-3.6928 0.8682,-0.779 1.7989,-1.1637 2.7921,-1.1541 0.4995,-0.056 1.1225,0.1331 1.8688,0.5674 0.7464,0.4344 1.1578,1.4506 1.2342,3.0486 l 0,9.0269 0.9745,0 0,-7.796 c 0.023,-1.5819 0.413,-2.784 1.17,-3.6063 0.7571,-0.8222 1.7433,-1.2357 2.9588,-1.2406 0.468,-0.059 1.0899,0.1235 1.8657,0.5482 0.7757,0.4247 1.2052,1.4473 1.2886,3.0678 l 0,9.0269 0.9745,0 0,-9.0013 c -0.023,-1.5446 -0.413,-2.6804 -1.17,-3.4076 -0.7571,-0.7271 -1.7434,-1.0872 -2.9588,-1.0802 -1.0573,0 -1.9239,0.2457 -2.5997,0.7244 -0.6759,0.4787 -1.2027,1.169 -1.5804,2.0708 l -0.051,0 c -0.132,-0.7111 -0.5156,-1.3468 -1.1508,-1.9073 -0.6353,-0.5604 -1.5766,-0.8564 -2.8241,-0.8879 -1.0103,0.021 -1.894,0.3125 -2.6511,0.8751 -0.757,0.5626 -1.2496,1.271 -1.4777,2.1253 l -0.051,0 0,-2.6927 -0.9745,0 z"
             id="path25625"
             inkscape:connector-curvature="0" />
          <path
             d="m -5562.0623,-3378.8067 0.9745,0 0,-25.6448 -0.9745,0 z"
             id="path25627"
             inkscape:connector-curvature="0" />
          <path
             d="m -5549.1884,-3385.2692 c 0.141,-1.0744 0.7309,-2.0414 1.7695,-2.901 1.0386,-0.8597 2.2182,-1.7049 3.539,-2.5357 1.318,-0.8275 2.4645,-1.7753 3.4396,-2.8433 0.975,-1.068 1.4868,-2.3684 1.5354,-3.9013 -0.041,-1.6268 -0.5807,-2.8417 -1.6188,-3.6447 -1.0381,-0.803 -2.3278,-1.2037 -3.8691,-1.2021 -1.7348,0 -3.0737,0.5156 -4.0167,1.5547 -0.9429,1.0392 -1.4676,2.6152 -1.5739,4.7283 l 0.9745,0 c 0,-1.5617 0.3879,-2.8493 1.1732,-3.8628 0.7854,-1.0135 1.9843,-1.5381 3.5967,-1.5739 1.1914,0.015 2.2065,0.3761 3.0453,1.0834 0.8388,0.7074 1.2769,1.6712 1.3143,2.8915 -0.053,1.458 -0.5877,2.6708 -1.6028,3.6384 -1.0151,0.9675 -2.1905,1.8662 -3.5261,2.6959 -1.3458,0.8302 -2.5458,1.7727 -3.5999,2.8273 -1.0541,1.0546 -1.6578,2.3946 -1.8112,4.0198 l 11.7966,0 0,-0.9745 z"
             id="path25629"
             inkscape:connector-curvature="0" />
          <path
             d="m -5530.1947,-3383.9869 c 1.6858,-0.034 2.9959,-0.5101 3.9303,-1.4276 0.9345,-0.9175 1.5854,-2.0715 1.9528,-3.462 0.3674,-1.3906 0.5435,-2.8124 0.5281,-4.2656 0.015,-1.4532 -0.1607,-2.8751 -0.5281,-4.2656 -0.3674,-1.3905 -1.0183,-2.5445 -1.9528,-3.4621 -0.9344,-0.9175 -2.2445,-1.3933 -3.9303,-1.4275 -1.6857,0.034 -2.9958,0.51 -3.9303,1.4275 -0.9344,0.9176 -1.5854,2.0716 -1.9528,3.4621 -0.3674,1.3905 -0.5434,2.8124 -0.5281,4.2656 -0.015,1.4532 0.1607,2.875 0.5281,4.2656 0.3674,1.3905 1.0184,2.5445 1.9528,3.462 0.9345,0.9175 2.2446,1.3934 3.9303,1.4276 z m 0,-0.8463 c -1.4638,-0.037 -2.5909,-0.4906 -3.3813,-1.362 -0.7904,-0.8715 -1.3343,-1.941 -1.6317,-3.2085 -0.2975,-1.2675 -0.4387,-2.5136 -0.4237,-3.7384 -0.015,-1.2248 0.1262,-2.4709 0.4237,-3.7385 0.2974,-1.2675 0.8413,-2.337 1.6317,-3.2084 0.7904,-0.8715 1.9175,-1.3255 3.3813,-1.362 1.4638,0.037 2.5909,0.4905 3.3814,1.362 0.7903,0.8714 1.3343,1.9409 1.6317,3.2084 0.2975,1.2676 0.4387,2.5137 0.4236,3.7385 0.015,1.2248 -0.1261,2.4709 -0.4236,3.7384 -0.2974,1.2675 -0.8414,2.337 -1.6317,3.2085 -0.7905,0.8714 -1.9176,1.3254 -3.3814,1.362 z"
             id="path25631"
             inkscape:connector-curvature="0" />
          <path
             d="m -5514.5604,-3401.9896 -0.8719,0 c -0.5337,0.904 -1.2165,1.6413 -2.0484,2.2119 -0.8318,0.5706 -1.7647,0.936 -2.7985,1.0963 l 0,0.8463 c 0.8933,-0.089 1.7482,-0.3211 2.5645,-0.6956 0.8164,-0.3746 1.543,-0.8949 2.1798,-1.5612 l 0,15.7972 0.9745,0 z"
             id="path25633"
             inkscape:connector-curvature="0" />
          <path
             d="m -5499.4133,-3401.9896 -8.6167,12.2069 0,0.9745 8.6167,0 0,4.5135 0.9745,0 0,-4.5135 2.9748,0 0,-0.8462 -2.9748,0 0,-12.3352 z m 0,12.3352 -7.6422,0 7.5909,-11.0017 0.051,0 z"
             id="path25635"
             inkscape:connector-curvature="0" />
        </g>
        <g
           style="font-size:25.64512634px;font-style:normal;font-variant:normal;font-weight:200;font-stretch:normal;text-align:start;line-height:125%;letter-spacing:0px;word-spacing:0px;writing-mode:lr-tb;text-anchor:start;fill:#ffffff;fill-opacity:1;stroke:none;font-family:HelveticaNeueLT Std Thin;-inkscape-font-specification:'HelveticaNeueLT Std Thin, Ultra-Light'"
           id="text21888">
          <path
             d="m -5899.1891,-3388.6799 c 0.068,1.5419 0.592,2.7087 1.5708,3.5005 0.9787,0.7918 2.2332,1.1893 3.7633,1.1925 1.2246,0.026 2.3722,-0.225 3.4428,-0.7534 1.0707,-0.5283 1.6413,-1.4911 1.7118,-2.8882 -0.031,-1.3426 -0.4819,-2.2733 -1.3527,-2.7921 -0.8709,-0.5187 -1.9758,-0.8788 -3.3146,-1.0803 -1.114,-0.1912 -2.1109,-0.469 -2.9908,-0.8334 -0.88,-0.3644 -1.3448,-1.0525 -1.3945,-2.0644 0.046,-0.9248 0.4541,-1.582 1.2246,-1.9715 0.7704,-0.3894 1.6273,-0.5786 2.5708,-0.5674 1.1257,-0.01 2.0479,0.2528 2.7665,0.7854 0.7186,0.5327 1.0957,1.3907 1.1316,2.5741 l 0.9745,0 c -0.028,-1.4879 -0.491,-2.5639 -1.3881,-3.228 -0.897,-0.6641 -2.0585,-0.99 -3.4845,-0.9777 -1.1748,-0.023 -2.2487,0.2147 -3.2216,0.7116 -0.9729,0.4969 -1.489,1.388 -1.5483,2.6735 0.047,1.3052 0.5177,2.2081 1.4137,2.7087 0.8959,0.5006 1.9378,0.8458 3.1254,1.0354 1.1754,0.1886 2.2098,0.4718 3.1031,0.8495 0.8932,0.3777 1.3634,1.1033 1.4104,2.1766 -0.067,1.115 -0.5487,1.8662 -1.4457,2.2535 -0.897,0.3874 -1.8085,0.568 -2.7344,0.5418 -1.2154,-0.01 -2.2209,-0.3446 -3.0164,-1.0098 -0.7956,-0.6651 -1.2433,-1.6108 -1.3432,-2.8369 z"
             id="path25638"
             inkscape:connector-curvature="0" />
          <path
             d="m -5876.353,-3397.4761 -1.0771,0 -4.4622,12.0531 -0.051,0 -4.7699,-12.0531 -1.1284,0 5.3085,13.1814 1.2053,0 z"
             id="path25640"
             inkscape:connector-curvature="0" />
          <path
             d="m -5869.8812,-3396.9376 c 1.6135,0.051 2.8167,0.6225 3.6095,1.715 0.7929,1.0926 1.1882,2.4016 1.1861,3.9269 5e-4,1.5376 -0.3981,2.854 -1.1957,3.9493 -0.7977,1.0952 -1.9976,1.668 -3.5999,1.7182 -1.5542,-0.042 -2.7285,-0.5989 -3.5229,-1.6701 -0.7945,-1.0712 -1.1931,-2.4037 -1.1957,-3.9974 0,-1.458 0.3868,-2.7477 1.1668,-3.8692 0.78,-1.1214 1.964,-1.7123 3.5518,-1.7727 z m 4.8212,-0.5385 0,2.744 -0.051,0 c -0.3846,-0.9911 -1.0129,-1.7465 -1.8849,-2.2664 -0.8719,-0.5198 -1.8336,-0.7816 -2.885,-0.7853 -1.8641,0.052 -3.2777,0.6977 -4.241,1.9361 -0.9633,1.2385 -1.4473,2.7558 -1.4521,4.552 0,1.8758 0.46,3.4198 1.3944,4.6321 0.9344,1.2122 2.3673,1.8395 4.2987,1.8817 1.1172,0 2.0756,-0.2597 2.8754,-0.7694 0.7998,-0.5097 1.4313,-1.2534 1.8945,-2.2311 l 0.051,0 0,3.0261 c 0.028,0.3318 -0.036,0.8621 -0.1909,1.5909 -0.1548,0.7289 -0.5661,1.4092 -1.2338,2.0412 -0.6677,0.6319 -1.7571,0.9685 -3.2683,1.0096 -1.1048,0.01 -2.0494,-0.2409 -2.8337,-0.7533 -0.7843,-0.5124 -1.2417,-1.3469 -1.372,-2.5036 l -0.9745,0 c 0.1058,1.5061 0.6315,2.5715 1.5771,3.196 0.9457,0.6246 2.1382,0.927 3.5775,0.9072 1.8625,0 3.198,-0.3867 4.0063,-1.1749 0.8082,-0.7882 1.3002,-1.6433 1.476,-2.5654 0.1757,-0.9221 0.246,-1.5816 0.2108,-1.9785 l 0,-12.489 z"
             id="path25642"
             inkscape:connector-curvature="0" />
          <path
             d="m -5852.8924,-3384.2947 0,-13.1814 -0.9746,0 0,13.1814 z m 0,-15.6689 0,-2.6415 -0.9746,0 0,2.6415 z"
             id="path25644"
             inkscape:connector-curvature="0" />
          <path
             d="m -5844.9433,-3397.4761 -2.8722,0 0,-4.1032 -0.9745,0 0,4.1032 -2.4363,0 0,0.8463 2.4363,0 0,9.2065 c -0.011,1.4398 0.3633,2.3491 1.1219,2.7279 0.7587,0.3788 1.6584,0.5124 2.6992,0.4007 l 0,-0.8463 c -0.9265,0.06 -1.6317,-0.048 -2.1157,-0.3237 -0.4841,-0.2762 -0.7277,-0.9291 -0.7309,-1.9586 l 0,-9.2065 2.8722,0 z"
             id="path25646"
             inkscape:connector-curvature="0" />
          <path
             d="m -5842.436,-3396.7324 0.9745,0 0,-5.8727 -0.9745,0 z"
             id="path25648"
             inkscape:connector-curvature="0" />
          <path
             d="m -5838.4322,-3388.6799 c 0.068,1.5419 0.592,2.7087 1.5708,3.5005 0.9787,0.7918 2.2332,1.1893 3.7633,1.1925 1.2246,0.026 2.3722,-0.225 3.4429,-0.7534 1.0706,-0.5283 1.6412,-1.4911 1.7117,-2.8882 -0.031,-1.3426 -0.4819,-2.2733 -1.3527,-2.7921 -0.8709,-0.5187 -1.9757,-0.8788 -3.3146,-1.0803 -1.114,-0.1912 -2.1109,-0.469 -2.9908,-0.8334 -0.88,-0.3644 -1.3448,-1.0525 -1.3945,-2.0644 0.046,-0.9248 0.4542,-1.582 1.2246,-1.9715 0.7704,-0.3894 1.6273,-0.5786 2.5709,-0.5674 1.1257,-0.01 2.0478,0.2528 2.7664,0.7854 0.7186,0.5327 1.0958,1.3907 1.1316,2.5741 l 0.9745,0 c -0.028,-1.4879 -0.491,-2.5639 -1.3881,-3.228 -0.897,-0.6641 -2.0585,-0.99 -3.4844,-0.9777 -1.1749,-0.023 -2.2488,0.2147 -3.2217,0.7116 -0.9729,0.4969 -1.489,1.388 -1.5483,2.6735 0.046,1.3052 0.5177,2.2081 1.4137,2.7087 0.896,0.5006 1.9378,0.8458 3.1255,1.0354 1.1753,0.1886 2.2097,0.4718 3.103,0.8495 0.8933,0.3777 1.3634,1.1033 1.4104,2.1766 -0.067,1.115 -0.5487,1.8662 -1.4457,2.2535 -0.897,0.3874 -1.8085,0.568 -2.7344,0.5418 -1.2154,-0.01 -2.2209,-0.3446 -3.0164,-1.0098 -0.7956,-0.6651 -1.2433,-1.6108 -1.3432,-2.8369 z"
             id="path25650"
             inkscape:connector-curvature="0" />
          <path
             d="m -5817.5106,-3397.4761 -0.9745,0 0,13.1814 0.9745,0 0,-7.2062 c 0.046,-0.9595 0.1849,-1.7139 0.4167,-2.2631 0.2319,-0.5492 0.5888,-1.06 1.0707,-1.5323 0.6037,-0.5663 1.2299,-0.9403 1.8785,-1.122 0.6486,-0.1816 1.2363,-0.235 1.7631,-0.1602 l 0,-0.9745 c -1.2219,-0.027 -2.2979,0.2452 -3.2281,0.8174 -0.9301,0.5722 -1.5381,1.2999 -1.824,2.183 l -0.077,0 z"
             id="path25652"
             inkscape:connector-curvature="0" />
          <path
             d="m -5811.988,-3390.8854 c 0.01,1.9255 0.5348,3.5433 1.5739,4.8533 1.0391,1.31 2.5319,1.9917 4.4782,2.0452 1.9464,-0.053 3.4391,-0.7352 4.4782,-2.0452 1.0392,-1.31 1.5638,-2.9278 1.574,-4.8533 -0.01,-1.9255 -0.5348,-3.5432 -1.5739,-4.8533 -1.0392,-1.31 -2.5319,-1.9917 -4.4783,-2.0451 -1.9463,0.053 -3.4391,0.7351 -4.4782,2.0451 -1.0391,1.3101 -1.5638,2.9278 -1.5739,4.8533 z m 0.9745,0 c 0,-1.6322 0.4375,-3.0351 1.2982,-4.2089 0.8607,-1.1738 2.1205,-1.7882 3.7794,-1.8433 1.6589,0.055 2.9187,0.6695 3.7794,1.8433 0.8607,1.1738 1.2935,2.5767 1.2983,4.2089 0,1.6322 -0.4376,3.0352 -1.2983,4.209 -0.8607,1.1737 -2.1205,1.7882 -3.7794,1.8432 -1.6589,-0.055 -2.9187,-0.6695 -3.7794,-1.8432 -0.8607,-1.1738 -1.2934,-2.5768 -1.2982,-4.209 z"
             id="path25654"
             inkscape:connector-curvature="0" />
          <path
             d="m -5786.6993,-3393.3986 c -0.172,-1.4954 -0.7576,-2.6013 -1.7567,-3.3178 -0.999,-0.7164 -2.2257,-1.0722 -3.68,-1.0674 -1.9575,0.053 -3.4535,0.7228 -4.4878,2.0099 -1.0344,1.287 -1.5558,2.8738 -1.5644,4.7603 -0.016,1.8972 0.4579,3.5267 1.4201,4.8885 0.9622,1.3619 2.5063,2.0746 4.6321,2.1382 1.45,-0.01 2.6788,-0.4397 3.6865,-1.2919 1.0076,-0.8522 1.6337,-2.0713 1.8784,-3.6576 l -0.9745,0 c -0.1832,1.2256 -0.6822,2.2108 -1.497,2.9556 -0.8148,0.7447 -1.8459,1.1273 -3.0934,1.1476 -1.7038,-0.035 -2.9764,-0.6192 -3.8179,-1.7535 -0.8414,-1.1342 -1.2614,-2.6099 -1.2598,-4.4269 0,-1.5595 0.4376,-2.9219 1.2983,-4.0872 0.8607,-1.1652 2.1205,-1.7774 3.7794,-1.8368 1.2181,0 2.2375,0.2998 3.0582,0.8944 0.8206,0.5947 1.2886,1.4762 1.404,2.6446 z"
             id="path25656"
             inkscape:connector-curvature="0" />
          <path
             d="m -5784.2236,-3384.2947 0.9745,0 0,-4.9751 3.0004,-2.5388 5.6163,7.5139 1.3335,0 -6.1804,-8.2576 5.7701,-4.9238 -1.4105,0 -8.1294,7.001 0,-12.13 -0.9745,0 z"
             id="path25658"
             inkscape:connector-curvature="0" />
          <path
             d="m -5772.9169,-3388.6799 c 0.068,1.5419 0.592,2.7087 1.5707,3.5005 0.9788,0.7918 2.2333,1.1893 3.7634,1.1925 1.2246,0.026 2.3722,-0.225 3.4428,-0.7534 1.0707,-0.5283 1.6413,-1.4911 1.7118,-2.8882 -0.031,-1.3426 -0.4819,-2.2733 -1.3527,-2.7921 -0.8709,-0.5187 -1.9758,-0.8788 -3.3146,-1.0803 -1.114,-0.1912 -2.1109,-0.469 -2.9909,-0.8334 -0.8799,-0.3644 -1.3447,-1.0525 -1.3944,-2.0644 0.046,-0.9248 0.4541,-1.582 1.2245,-1.9715 0.7705,-0.3894 1.6274,-0.5786 2.5709,-0.5674 1.1257,-0.01 2.0479,0.2528 2.7665,0.7854 0.7186,0.5327 1.0957,1.3907 1.1315,2.5741 l 0.9746,0 c -0.028,-1.4879 -0.4911,-2.5639 -1.3881,-3.228 -0.897,-0.6641 -2.0585,-0.99 -3.4845,-0.9777 -1.1748,-0.023 -2.2487,0.2147 -3.2216,0.7116 -0.9729,0.4969 -1.489,1.388 -1.5483,2.6735 0.046,1.3052 0.5177,2.2081 1.4137,2.7087 0.8959,0.5006 1.9378,0.8458 3.1254,1.0354 1.1754,0.1886 2.2098,0.4718 3.1031,0.8495 0.8932,0.3777 1.3634,1.1033 1.4104,2.1766 -0.067,1.115 -0.5487,1.8662 -1.4457,2.2535 -0.897,0.3874 -1.8085,0.568 -2.7344,0.5418 -1.2154,-0.01 -2.2209,-0.3446 -3.0164,-1.0098 -0.7956,-0.6651 -1.2433,-1.6108 -1.3432,-2.8369 z"
             id="path25660"
             inkscape:connector-curvature="0" />
          <path
             d="m -5758.8001,-3402.6051 0,6.1804 0.3078,7.437 0.6154,0 0.3078,-7.437 0,-6.1804 z m 1.2566,18.3104 0,-2.6414 -1.3079,0 0,2.6414 z"
             id="path25662"
             inkscape:connector-curvature="0" />
          <path
             d="m -5752.1384,-3402.6051 0,6.1804 0.3078,7.437 0.6155,0 0.3077,-7.437 0,-6.1804 z m 1.2566,18.3104 0,-2.6414 -1.3078,0 0,2.6414 z"
             id="path25664"
             inkscape:connector-curvature="0" />
          <path
             d="m -5745.4766,-3402.6051 0,6.1804 0.3077,7.437 0.6155,0 0.3077,-7.437 0,-6.1804 z m 1.2566,18.3104 0,-2.6414 -1.3079,0 0,2.6414 z"
             id="path25666"
             inkscape:connector-curvature="0" />
          <path
             d="m -5732.0614,-3378.8067 0.9745,0 0,-25.6448 -0.9745,0 z"
             id="path25668"
             inkscape:connector-curvature="0" />
          <path
             d="m -5720.675,-3388.6799 c 0.068,1.5419 0.592,2.7087 1.5708,3.5005 0.9788,0.7918 2.2332,1.1893 3.7634,1.1925 1.2245,0.026 2.3721,-0.225 3.4428,-0.7534 1.0706,-0.5283 1.6412,-1.4911 1.7118,-2.8882 -0.031,-1.3426 -0.482,-2.2733 -1.3528,-2.7921 -0.8709,-0.5187 -1.9757,-0.8788 -3.3146,-1.0803 -1.1139,-0.1912 -2.1109,-0.469 -2.9908,-0.8334 -0.88,-0.3644 -1.3448,-1.0525 -1.3945,-2.0644 0.046,-0.9248 0.4542,-1.582 1.2246,-1.9715 0.7704,-0.3894 1.6274,-0.5786 2.5709,-0.5674 1.1257,-0.01 2.0478,0.2528 2.7664,0.7854 0.7186,0.5327 1.0958,1.3907 1.1316,2.5741 l 0.9745,0 c -0.028,-1.4879 -0.491,-2.5639 -1.388,-3.228 -0.8971,-0.6641 -2.0586,-0.99 -3.4845,-0.9777 -1.1749,-0.023 -2.2488,0.2147 -3.2217,0.7116 -0.9729,0.4969 -1.489,1.388 -1.5483,2.6735 0.046,1.3052 0.5177,2.2081 1.4137,2.7087 0.896,0.5006 1.9378,0.8458 3.1255,1.0354 1.1754,0.1886 2.2097,0.4718 3.103,0.8495 0.8933,0.3777 1.3634,1.1033 1.4105,2.1766 -0.067,1.115 -0.5487,1.8662 -1.4458,2.2535 -0.897,0.3874 -1.8085,0.568 -2.7343,0.5418 -1.2155,-0.01 -2.221,-0.3446 -3.0165,-1.0098 -0.7955,-0.6651 -1.2433,-1.6108 -1.3432,-2.8369 z"
             id="path25670"
             inkscape:connector-curvature="0" />
          <path
             d="m -5697.8389,-3397.4761 -1.0771,0 -4.4622,12.0531 -0.051,0 -4.7699,-12.0531 -1.1284,0 5.3085,13.1814 1.2053,0 z"
             id="path25672"
             inkscape:connector-curvature="0" />
          <path
             d="m -5691.3671,-3396.9376 c 1.6135,0.051 2.8167,0.6225 3.6095,1.715 0.7929,1.0926 1.1882,2.4016 1.1861,3.9269 5e-4,1.5376 -0.398,2.854 -1.1957,3.9493 -0.7977,1.0952 -1.9976,1.668 -3.5999,1.7182 -1.5542,-0.042 -2.7285,-0.5989 -3.5229,-1.6701 -0.7945,-1.0712 -1.193,-2.4037 -1.1957,-3.9974 0,-1.458 0.3868,-2.7477 1.1668,-3.8692 0.78,-1.1214 1.964,-1.7123 3.5518,-1.7727 z m 4.8213,-0.5385 0,2.744 -0.051,0 c -0.3847,-0.9911 -1.013,-1.7465 -1.8849,-2.2664 -0.872,-0.5198 -1.8336,-0.7816 -2.8851,-0.7853 -1.864,0.052 -3.2777,0.6977 -4.241,1.9361 -0.9633,1.2385 -1.4473,2.7558 -1.4521,4.552 0,1.8758 0.46,3.4198 1.3944,4.6321 0.9344,1.2122 2.3674,1.8395 4.2987,1.8817 1.1172,0 2.0756,-0.2597 2.8755,-0.7694 0.7997,-0.5097 1.4312,-1.2534 1.8945,-2.2311 l 0.051,0 0,3.0261 c 0.028,0.3318 -0.036,0.8621 -0.191,1.5909 -0.1548,0.7289 -0.5661,1.4092 -1.2338,2.0412 -0.6677,0.6319 -1.7571,0.9685 -3.2682,1.0096 -1.1049,0.01 -2.0495,-0.2409 -2.8338,-0.7533 -0.7843,-0.5124 -1.2416,-1.3469 -1.372,-2.5036 l -0.9745,0 c 0.1058,1.5061 0.6315,2.5715 1.5772,3.196 0.9456,0.6246 2.1381,0.927 3.5774,0.9072 1.8626,0 3.198,-0.3867 4.0063,-1.1749 0.8083,-0.7882 1.3003,-1.6433 1.476,-2.5654 0.1757,-0.9221 0.246,-1.5816 0.2109,-1.9785 l 0,-12.489 z"
             id="path25674"
             inkscape:connector-curvature="0" />
          <path
             d="m -5683.2091,-3388.6799 c 0.068,1.5419 0.592,2.7087 1.5708,3.5005 0.9788,0.7918 2.2332,1.1893 3.7634,1.1925 1.2245,0.026 2.3721,-0.225 3.4428,-0.7534 1.0706,-0.5283 1.6412,-1.4911 1.7118,-2.8882 -0.031,-1.3426 -0.4819,-2.2733 -1.3528,-2.7921 -0.8709,-0.5187 -1.9757,-0.8788 -3.3146,-1.0803 -1.1139,-0.1912 -2.1109,-0.469 -2.9908,-0.8334 -0.8799,-0.3644 -1.3448,-1.0525 -1.3944,-2.0644 0.046,-0.9248 0.4541,-1.582 1.2245,-1.9715 0.7704,-0.3894 1.6274,-0.5786 2.5709,-0.5674 1.1257,-0.01 2.0478,0.2528 2.7664,0.7854 0.7186,0.5327 1.0958,1.3907 1.1316,2.5741 l 0.9745,0 c -0.028,-1.4879 -0.491,-2.5639 -1.388,-3.228 -0.8971,-0.6641 -2.0586,-0.99 -3.4845,-0.9777 -1.1749,-0.023 -2.2487,0.2147 -3.2216,0.7116 -0.9729,0.4969 -1.489,1.388 -1.5483,2.6735 0.046,1.3052 0.5177,2.2081 1.4136,2.7087 0.896,0.5006 1.9378,0.8458 3.1255,1.0354 1.1754,0.1886 2.2097,0.4718 3.103,0.8495 0.8933,0.3777 1.3634,1.1033 1.4105,2.1766 -0.067,1.115 -0.5487,1.8662 -1.4458,2.2535 -0.897,0.3874 -1.8085,0.568 -2.7343,0.5418 -1.2155,-0.01 -2.221,-0.3446 -3.0165,-1.0098 -0.7955,-0.6651 -1.2432,-1.6108 -1.3431,-2.8369 z"
             id="path25676"
             inkscape:connector-curvature="0" />
          <path
             d="m -5665.5276,-3397.4761 -2.8722,0 0,-4.1032 -0.9745,0 0,4.1032 -2.4363,0 0,0.8463 2.4363,0 0,9.2065 c -0.011,1.4398 0.3633,2.3491 1.1219,2.7279 0.7587,0.3788 1.6584,0.5124 2.6992,0.4007 l 0,-0.8463 c -0.9265,0.06 -1.6317,-0.048 -2.1157,-0.3237 -0.4841,-0.2762 -0.7277,-0.9291 -0.7309,-1.9586 l 0,-9.2065 2.8722,0 z"
             id="path25678"
             inkscape:connector-curvature="0" />
          <path
             d="m -5664.3282,-3390.8854 c 0.01,1.9255 0.5348,3.5433 1.5739,4.8533 1.0392,1.31 2.5319,1.9917 4.4783,2.0452 1.9463,-0.053 3.439,-0.7352 4.4782,-2.0452 1.0391,-1.31 1.5638,-2.9278 1.5739,-4.8533 -0.01,-1.9255 -0.5348,-3.5432 -1.5739,-4.8533 -1.0392,-1.31 -2.5319,-1.9917 -4.4782,-2.0451 -1.9464,0.053 -3.4391,0.7351 -4.4783,2.0451 -1.0391,1.3101 -1.5638,2.9278 -1.5739,4.8533 z m 0.9745,0 c 0,-1.6322 0.4375,-3.0351 1.2983,-4.2089 0.8607,-1.1738 2.1205,-1.7882 3.7794,-1.8433 1.6588,0.055 2.9186,0.6695 3.7794,1.8433 0.8606,1.1738 1.2934,2.5767 1.2982,4.2089 0,1.6322 -0.4376,3.0352 -1.2982,4.209 -0.8608,1.1737 -2.1206,1.7882 -3.7794,1.8432 -1.6589,-0.055 -2.9187,-0.6695 -3.7794,-1.8432 -0.8608,-1.1738 -1.2935,-2.5768 -1.2983,-4.209 z"
             id="path25680"
             inkscape:connector-curvature="0" />
          <path
             d="m -5639.0395,-3393.3986 c -0.172,-1.4954 -0.7576,-2.6013 -1.7566,-3.3178 -0.9991,-0.7164 -2.2258,-1.0722 -3.6801,-1.0674 -1.9575,0.053 -3.4535,0.7228 -4.4878,2.0099 -1.0343,1.287 -1.5558,2.8738 -1.5643,4.7603 -0.016,1.8972 0.4578,3.5267 1.42,4.8885 0.9623,1.3619 2.5063,2.0746 4.6321,2.1382 1.45,-0.01 2.6788,-0.4397 3.6865,-1.2919 1.0076,-0.8522 1.6337,-2.0713 1.8785,-3.6576 l -0.9745,0 c -0.1833,1.2256 -0.6823,2.2108 -1.4971,2.9556 -0.8147,0.7447 -1.8459,1.1273 -3.0934,1.1476 -1.7037,-0.035 -2.9764,-0.6192 -3.8178,-1.7535 -0.8415,-1.1342 -1.2614,-2.6099 -1.2598,-4.4269 0,-1.5595 0.4375,-2.9219 1.2982,-4.0872 0.8607,-1.1652 2.1205,-1.7774 3.7794,-1.8368 1.2182,0 2.2375,0.2998 3.0582,0.8944 0.8206,0.5947 1.2886,1.4762 1.404,2.6446 z"
             id="path25682"
             inkscape:connector-curvature="0" />
          <path
             d="m -5636.5638,-3384.2947 0.9745,0 0,-4.9751 3.0005,-2.5388 5.6162,7.5139 1.3335,0 -6.1804,-8.2576 5.7701,-4.9238 -1.4105,0 -8.1294,7.001 0,-12.13 -0.9745,0 z"
             id="path25684"
             inkscape:connector-curvature="0" />
          <path
             d="m -5621.9745,-3384.2947 0,-2.6414 -1.3079,0 0,2.6414 z"
             id="path25686"
             inkscape:connector-curvature="0" />
          <path
             d="m -5606.7326,-3393.3986 c -0.1721,-1.4954 -0.7576,-2.6013 -1.7567,-3.3178 -0.9991,-0.7164 -2.2258,-1.0722 -3.68,-1.0674 -1.9576,0.053 -3.4535,0.7228 -4.4879,2.0099 -1.0343,1.287 -1.5558,2.8738 -1.5643,4.7603 -0.016,1.8972 0.4579,3.5267 1.4201,4.8885 0.9622,1.3619 2.5062,2.0746 4.6321,2.1382 1.45,-0.01 2.6788,-0.4397 3.6864,-1.2919 1.0076,-0.8522 1.6338,-2.0713 1.8785,-3.6576 l -0.9745,0 c -0.1833,1.2256 -0.6823,2.2108 -1.497,2.9556 -0.8148,0.7447 -1.8459,1.1273 -3.0934,1.1476 -1.7038,-0.035 -2.9764,-0.6192 -3.8179,-1.7535 -0.8415,-1.1342 -1.2614,-2.6099 -1.2598,-4.4269 0,-1.5595 0.4376,-2.9219 1.2983,-4.0872 0.8607,-1.1652 2.1205,-1.7774 3.7794,-1.8368 1.2181,0 2.2375,0.2998 3.0581,0.8944 0.8206,0.5947 1.2887,1.4762 1.4041,2.6446 z"
             id="path25688"
             inkscape:connector-curvature="0" />
          <path
             d="m -5604.9237,-3390.8854 c 0.01,1.9255 0.5348,3.5433 1.574,4.8533 1.0391,1.31 2.5318,1.9917 4.4782,2.0452 1.9463,-0.053 3.439,-0.7352 4.4782,-2.0452 1.0391,-1.31 1.5638,-2.9278 1.574,-4.8533 -0.01,-1.9255 -0.5349,-3.5432 -1.574,-4.8533 -1.0392,-1.31 -2.5319,-1.9917 -4.4782,-2.0451 -1.9464,0.053 -3.4391,0.7351 -4.4782,2.0451 -1.0392,1.3101 -1.5638,2.9278 -1.574,4.8533 z m 0.9745,0 c 0,-1.6322 0.4376,-3.0351 1.2983,-4.2089 0.8607,-1.1738 2.1205,-1.7882 3.7794,-1.8433 1.6589,0.055 2.9187,0.6695 3.7794,1.8433 0.8607,1.1738 1.2934,2.5767 1.2983,4.2089 0,1.6322 -0.4376,3.0352 -1.2983,4.209 -0.8607,1.1737 -2.1205,1.7882 -3.7794,1.8432 -1.6589,-0.055 -2.9187,-0.6695 -3.7794,-1.8432 -0.8607,-1.1738 -1.2935,-2.5768 -1.2983,-4.209 z"
             id="path25690"
             inkscape:connector-curvature="0" />
          <path
             d="m -5590.5083,-3384.2947 0.9745,0 0,-7.796 c 0.057,-1.6829 0.5198,-2.9139 1.388,-3.6928 0.8682,-0.779 1.7989,-1.1637 2.7921,-1.1541 0.4995,-0.056 1.1225,0.1331 1.8688,0.5674 0.7464,0.4344 1.1578,1.4506 1.2342,3.0486 l 0,9.0269 0.9745,0 0,-7.796 c 0.023,-1.5819 0.413,-2.784 1.17,-3.6063 0.7571,-0.8222 1.7433,-1.2357 2.9588,-1.2406 0.468,-0.059 1.0899,0.1235 1.8657,0.5482 0.7757,0.4247 1.2052,1.4473 1.2886,3.0678 l 0,9.0269 0.9745,0 0,-9.0013 c -0.023,-1.5446 -0.413,-2.6804 -1.17,-3.4076 -0.7571,-0.7271 -1.7434,-1.0872 -2.9588,-1.0802 -1.0573,0 -1.9239,0.2457 -2.5997,0.7244 -0.6759,0.4787 -1.2027,1.169 -1.5804,2.0708 l -0.051,0 c -0.132,-0.7111 -0.5156,-1.3468 -1.1508,-1.9073 -0.6353,-0.5604 -1.5766,-0.8564 -2.8241,-0.8879 -1.0103,0.021 -1.894,0.3125 -2.6511,0.8751 -0.757,0.5626 -1.2496,1.271 -1.4777,2.1253 l -0.051,0 0,-2.6927 -0.9745,0 z"
             id="path25692"
             inkscape:connector-curvature="0" />
          <path
             d="m -5562.0623,-3378.8067 0.9745,0 0,-25.6448 -0.9745,0 z"
             id="path25694"
             inkscape:connector-curvature="0" />
          <path
             d="m -5549.1884,-3385.2692 c 0.141,-1.0744 0.7309,-2.0414 1.7695,-2.901 1.0386,-0.8597 2.2182,-1.7049 3.539,-2.5357 1.318,-0.8275 2.4645,-1.7753 3.4396,-2.8433 0.975,-1.068 1.4868,-2.3684 1.5354,-3.9013 -0.041,-1.6268 -0.5807,-2.8417 -1.6188,-3.6447 -1.0381,-0.803 -2.3278,-1.2037 -3.8691,-1.2021 -1.7348,0 -3.0737,0.5156 -4.0167,1.5547 -0.9429,1.0392 -1.4676,2.6152 -1.5739,4.7283 l 0.9745,0 c 0,-1.5617 0.3879,-2.8493 1.1732,-3.8628 0.7854,-1.0135 1.9843,-1.5381 3.5967,-1.5739 1.1914,0.015 2.2065,0.3761 3.0453,1.0834 0.8388,0.7074 1.2769,1.6712 1.3143,2.8915 -0.053,1.458 -0.5877,2.6708 -1.6028,3.6384 -1.0151,0.9675 -2.1905,1.8662 -3.5261,2.6959 -1.3458,0.8302 -2.5458,1.7727 -3.5999,2.8273 -1.0541,1.0546 -1.6578,2.3946 -1.8112,4.0198 l 11.7966,0 0,-0.9745 z"
             id="path25696"
             inkscape:connector-curvature="0" />
          <path
             d="m -5530.1947,-3383.9869 c 1.6858,-0.034 2.9959,-0.5101 3.9303,-1.4276 0.9345,-0.9175 1.5854,-2.0715 1.9528,-3.462 0.3674,-1.3906 0.5435,-2.8124 0.5281,-4.2656 0.015,-1.4532 -0.1607,-2.8751 -0.5281,-4.2656 -0.3674,-1.3905 -1.0183,-2.5445 -1.9528,-3.4621 -0.9344,-0.9175 -2.2445,-1.3933 -3.9303,-1.4275 -1.6857,0.034 -2.9958,0.51 -3.9303,1.4275 -0.9344,0.9176 -1.5854,2.0716 -1.9528,3.4621 -0.3674,1.3905 -0.5434,2.8124 -0.5281,4.2656 -0.015,1.4532 0.1607,2.875 0.5281,4.2656 0.3674,1.3905 1.0184,2.5445 1.9528,3.462 0.9345,0.9175 2.2446,1.3934 3.9303,1.4276 z m 0,-0.8463 c -1.4638,-0.037 -2.5909,-0.4906 -3.3813,-1.362 -0.7904,-0.8715 -1.3343,-1.941 -1.6317,-3.2085 -0.2975,-1.2675 -0.4387,-2.5136 -0.4237,-3.7384 -0.015,-1.2248 0.1262,-2.4709 0.4237,-3.7385 0.2974,-1.2675 0.8413,-2.337 1.6317,-3.2084 0.7904,-0.8715 1.9175,-1.3255 3.3813,-1.362 1.4638,0.037 2.5909,0.4905 3.3814,1.362 0.7903,0.8714 1.3343,1.9409 1.6317,3.2084 0.2975,1.2676 0.4387,2.5137 0.4236,3.7385 0.015,1.2248 -0.1261,2.4709 -0.4236,3.7384 -0.2974,1.2675 -0.8414,2.337 -1.6317,3.2085 -0.7905,0.8714 -1.9176,1.3254 -3.3814,1.362 z"
             id="path25698"
             inkscape:connector-curvature="0" />
          <path
             d="m -5514.5604,-3401.9896 -0.8719,0 c -0.5337,0.904 -1.2165,1.6413 -2.0484,2.2119 -0.8318,0.5706 -1.7647,0.936 -2.7985,1.0963 l 0,0.8463 c 0.8933,-0.089 1.7482,-0.3211 2.5645,-0.6956 0.8164,-0.3746 1.543,-0.8949 2.1798,-1.5612 l 0,15.7972 0.9745,0 z"
             id="path25700"
             inkscape:connector-curvature="0" />
          <path
             d="m -5499.4133,-3401.9896 -8.6167,12.2069 0,0.9745 8.6167,0 0,4.5135 0.9745,0 0,-4.5135 2.9748,0 0,-0.8462 -2.9748,0 0,-12.3352 z m 0,12.3352 -7.6422,0 7.5909,-11.0017 0.051,0 z"
             id="path25702"
             inkscape:connector-curvature="0" />
        </g>
      </g>
    </g>
    <path
       inkscape:export-ydpi="90"
       inkscape:export-xdpi="90"
       inkscape:export-filename="C:\Users\User\Desktop\SVGSTOCK\LOGO\behance-logo-by-svgstock\behance-logo-by-svgstock.png"
       inkscape:connector-curvature="0"
       id="path3992"
       d="m 590.35394,555.64766 0,189.77585 -189.77585,0"
       style="opacity:0.33185841;color:#000000;fill:none;stroke:#ffffff;stroke-width:1;marker:none;visibility:visible;display:inline;overflow:visible;enable-background:accumulate"
       sodipodi:nodetypes="ccc" />
    <path
       style="color:#000000;fill:#257199;fill-opacity:1;fill-rule:nonzero;stroke:none;stroke-width:1;marker:none;visibility:visible;display:inline;overflow:visible;enable-background:accumulate;opacity:0.2920354;filter:url(#filter3978)"
       d="m 399.95309,555.02901 189.77585,0 0,189.77585 -189.77585,0 z"
       id="rect22200"
       inkscape:connector-curvature="0"
       inkscape:export-filename="C:\Users\User\Desktop\SVGSTOCK\LOGO\behance-logo-by-svgstock\behance-logo-by-svgstock.png"
       inkscape:export-xdpi="90"
       inkscape:export-ydpi="90" />
    <g
       id="g22227"
       transform="matrix(0.78845615,0,0,0.78845615,11665.867,-8068.0514)"
       style="fill:#319dd4;fill-opacity:1"
       inkscape:export-filename="C:\Users\User\Desktop\SVGSTOCK\LOGO\behance-logo-by-svgstock\behance-logo-by-svgstock.png"
       inkscape:export-xdpi="90"
       inkscape:export-ydpi="90">
      <path
         id="rect22163"
         d="m -14139.988,11010.873 41.171,0 0,10.495 -41.171,0 z"
         style="color:#000000;fill:#319dd4;fill-opacity:1;fill-rule:nonzero;stroke:none;stroke-width:1;marker:none;visibility:visible;display:inline;overflow:visible;enable-background:accumulate"
         inkscape:connector-curvature="0" />
      <g
         style="font-size:169.6451416px;font-style:normal;font-weight:normal;line-height:125%;letter-spacing:0px;word-spacing:0px;fill:#319dd4;fill-opacity:1;stroke:none;font-family:Sans"
         id="g22211"
         transform="matrix(0.80728736,0,0,0.80728736,-3924.6783,2278.3335)">
        <path
           inkscape:connector-curvature="0"
           d="m -12761.938,10830.201 0,26.922 29.986,0 c 5.356,0 9.705,-1.008 13.046,-3.024 3.341,-2.016 5.012,-5.591 5.012,-10.727 0,-5.688 -2.209,-9.443 -6.627,-11.266 -3.81,-1.27 -8.67,-1.905 -14.579,-1.905 z m 0,47.133 0,32.554 29.986,0 c 5.356,0 9.526,-0.718 12.508,-2.154 5.412,-2.65 8.118,-7.731 8.118,-15.241 0,-6.351 -2.623,-10.713 -7.87,-13.088 -2.926,-1.325 -7.041,-2.016 -12.342,-2.071 z m 34.956,-68.338 c 14.965,0.221 25.568,4.556 31.808,13.005 3.755,5.191 5.633,11.403 5.633,18.637 0,7.456 -1.878,13.447 -5.633,17.976 -2.098,2.54 -5.191,4.859 -9.277,6.958 6.24,2.264 10.948,5.853 14.123,10.768 3.175,4.915 4.763,10.879 4.763,17.892 0,7.235 -1.822,13.723 -5.467,19.466 -2.319,3.811 -5.219,7.014 -8.697,9.609 -3.921,2.982 -8.546,5.026 -13.875,6.13 -5.329,1.105 -11.114,1.657 -17.354,1.657 l -55.334,0 0,-122.098 59.31,0 z"
           style="font-variant:normal;font-weight:bold;font-stretch:normal;text-align:start;writing-mode:lr-tb;text-anchor:start;fill:#319dd4;fill-opacity:1;font-family:Helvetica;-inkscape-font-specification:Helvetica Bold"
           id="path22213" />
        <path
           inkscape:connector-curvature="0"
           d="m -12630.397,10857.868 c -5.467,0 -9.705,1.712 -12.715,5.136 -3.01,3.424 -4.901,8.062 -5.674,13.916 l 36.695,0 c -0.386,-6.24 -2.278,-10.976 -5.674,-14.206 -3.396,-3.231 -7.607,-4.846 -12.632,-4.846 z m 0,-19.466 c 7.51,0 14.275,1.408 20.295,4.224 6.019,2.817 10.989,7.262 14.91,13.337 3.534,5.357 5.826,11.569 6.875,18.638 0.607,4.141 0.856,10.105 0.745,17.892 l -61.794,0 c 0.331,9.056 3.175,15.407 8.532,19.052 3.258,2.264 7.179,3.396 11.762,3.396 4.86,0 8.808,-1.381 11.846,-4.142 1.656,-1.491 3.12,-3.562 4.39,-6.212 l 24.105,0 c -0.608,5.356 -3.396,10.796 -8.366,16.318 -7.732,8.781 -18.555,13.171 -32.472,13.171 -11.486,0 -21.619,-3.7 -30.4,-11.1 -8.78,-7.4 -13.171,-19.439 -13.171,-36.116 0,-15.628 3.963,-27.611 11.887,-35.95 7.925,-8.339 18.21,-12.508 30.856,-12.508 z"
           style="font-variant:normal;font-weight:bold;font-stretch:normal;text-align:start;writing-mode:lr-tb;text-anchor:start;fill:#319dd4;fill-opacity:1;font-family:Helvetica;-inkscape-font-specification:Helvetica Bold"
           id="path22215" />
      </g>
    </g>
    <g
       style="fill:#257199;fill-opacity:1;opacity:0.95575221"
       id="g4008">
      <g
         style="font-size:169.64514159999999000px;font-style:normal;font-weight:normal;line-height:125%;letter-spacing:0px;word-spacing:0px;fill:#257199;fill-opacity:1;stroke:none;font-family:Sans"
         id="g4010"
         transform="matrix(0.42011212,0,0,0.42011212,5981.4055,-3848.8019)"
         inkscape:export-filename="C:\Users\User\Desktop\SVGSTOCK\LOGO\behance-logo-by-svgstock\behance-logo-by-svgstock.png"
         inkscape:export-xdpi="90"
         inkscape:export-ydpi="90">
        <path
           inkscape:connector-curvature="0"
           d="m -12761.938,10830.201 0,26.922 29.986,0 c 5.356,0 9.705,-1.008 13.046,-3.024 3.341,-2.016 5.012,-5.591 5.012,-10.727 0,-5.688 -2.209,-9.443 -6.627,-11.266 -3.81,-1.27 -8.67,-1.905 -14.579,-1.905 z m 0,47.133 0,32.554 29.986,0 c 5.356,0 9.526,-0.718 12.508,-2.154 5.412,-2.65 8.118,-7.731 8.118,-15.241 0,-6.351 -2.623,-10.713 -7.87,-13.088 -2.926,-1.325 -7.041,-2.016 -12.342,-2.071 z m 34.956,-68.338 c 14.965,0.221 25.568,4.556 31.808,13.005 3.755,5.191 5.633,11.403 5.633,18.637 0,7.456 -1.878,13.447 -5.633,17.976 -2.098,2.54 -5.191,4.859 -9.277,6.958 6.24,2.264 10.948,5.853 14.123,10.768 3.175,4.915 4.763,10.879 4.763,17.892 0,7.235 -1.822,13.723 -5.467,19.466 -2.319,3.811 -5.219,7.014 -8.697,9.609 -3.921,2.982 -8.546,5.026 -13.875,6.13 -5.329,1.105 -11.114,1.657 -17.354,1.657 l -55.334,0 0,-122.098 59.31,0 z"
           style="font-variant:normal;font-weight:bold;font-stretch:normal;text-align:start;writing-mode:lr-tb;text-anchor:start;fill:#257199;font-family:Helvetica;-inkscape-font-specification:Helvetica Bold;fill-opacity:1"
           id="path4012" />
        <path
           inkscape:connector-curvature="0"
           d="m -12630.397,10857.868 c -5.467,0 -9.705,1.712 -12.715,5.136 -3.01,3.424 -4.901,8.062 -5.674,13.916 l 36.695,0 c -0.386,-6.24 -2.278,-10.976 -5.674,-14.206 -3.396,-3.231 -7.607,-4.846 -12.632,-4.846 z m 0,-19.466 c 7.51,0 14.275,1.408 20.295,4.224 6.019,2.817 10.989,7.262 14.91,13.337 3.534,5.357 5.826,11.569 6.875,18.638 0.607,4.141 0.856,10.105 0.745,17.892 l -61.794,0 c 0.331,9.056 3.175,15.407 8.532,19.052 3.258,2.264 7.179,3.396 11.762,3.396 4.86,0 8.808,-1.381 11.846,-4.142 1.656,-1.491 3.12,-3.562 4.39,-6.212 l 24.105,0 c -0.608,5.356 -3.396,10.796 -8.366,16.318 -7.732,8.781 -18.555,13.171 -32.472,13.171 -11.486,0 -21.619,-3.7 -30.4,-11.1 -8.78,-7.4 -13.171,-19.439 -13.171,-36.116 0,-15.628 3.963,-27.611 11.887,-35.95 7.925,-8.339 18.21,-12.508 30.856,-12.508 z"
           style="font-variant:normal;font-weight:bold;font-stretch:normal;text-align:start;writing-mode:lr-tb;text-anchor:start;fill:#257199;font-family:Helvetica;-inkscape-font-specification:Helvetica Bold;fill-opacity:1"
           id="path4014" />
        <path
           inkscape:connector-curvature="0"
           d="m -12521.801,10838.485 c 5.578,0 10.644,0.966 15.2,2.899 4.556,1.933 8.297,4.887 11.224,8.863 2.485,3.369 4.004,6.834 4.556,10.396 0.552,3.562 0.828,9.374 0.829,17.437 l 0,53.014 -24.105,0 0,-54.92 c 0,-4.859 -0.829,-8.78 -2.485,-11.762 -2.154,-4.197 -6.241,-6.295 -12.26,-6.295 -6.24,0 -10.975,2.084 -14.206,6.254 -3.231,4.169 -4.846,10.119 -4.846,17.85 l 0,48.873 -23.525,0 0,-121.684 23.525,0 0,43.157 c 3.424,-5.246 7.386,-8.905 11.887,-10.976 4.501,-2.071 9.236,-3.106 14.206,-3.106 z"
           style="font-variant:normal;font-weight:bold;font-stretch:normal;text-align:start;writing-mode:lr-tb;text-anchor:start;fill:#257199;font-family:Helvetica;-inkscape-font-specification:Helvetica Bold;fill-opacity:1"
           id="path4016" />
        <path
           inkscape:connector-curvature="0"
           d="m -12418.092,10887.191 c -1.491,0.939 -2.996,1.699 -4.515,2.278 -1.518,0.58 -3.603,1.119 -6.254,1.616 l -5.301,0.994 c -4.97,0.883 -8.532,1.96 -10.686,3.23 -3.644,2.154 -5.467,5.495 -5.467,10.023 0,4.032 1.119,6.945 3.355,8.739 2.237,1.795 4.956,2.692 8.159,2.692 5.081,0 9.761,-1.491 14.041,-4.473 4.28,-2.982 6.502,-8.421 6.668,-16.318 z m -14.33,-11.017 c 4.362,-0.552 7.482,-1.242 9.36,-2.07 3.368,-1.436 5.053,-3.673 5.053,-6.71 0,-3.7 -1.284,-6.254 -3.852,-7.662 -2.568,-1.408 -6.337,-2.112 -11.307,-2.112 -5.577,0 -9.526,1.38 -11.845,4.141 -1.657,2.044 -2.761,4.805 -3.314,8.284 l -22.779,0 c 0.497,-7.897 2.706,-14.386 6.627,-19.466 6.24,-7.952 16.953,-11.929 32.139,-11.929 9.885,0 18.666,1.961 26.342,5.882 7.676,3.921 11.514,11.32 11.514,22.199 l 0,41.418 c 0,2.871 0.06,6.35 0.165,10.437 0.166,3.092 0.635,5.191 1.409,6.295 0.773,1.105 1.932,2.016 3.479,2.734 l 0,3.479 -25.679,0 c -0.718,-1.823 -1.215,-3.535 -1.491,-5.136 -0.276,-1.601 -0.497,-3.424 -0.663,-5.467 -3.258,3.534 -7.013,6.544 -11.265,9.029 -5.081,2.927 -10.824,4.39 -17.23,4.39 -8.173,0 -14.924,-2.333 -20.253,-6.999 -5.329,-4.667 -7.993,-11.28 -7.993,-19.839 0,-11.1 4.279,-19.135 12.839,-24.105 4.694,-2.706 11.597,-4.639 20.709,-5.799 z"
           style="letter-spacing:-3.35000014000000010px;fill:#257199;fill-opacity:1"
           id="path4018" />
        <path
           inkscape:connector-curvature="0"
           d="m -12326.762,10838.65 c 9.332,0 16.967,2.444 22.904,7.331 5.936,4.888 8.904,12.992 8.904,24.312 l 0,60.801 -24.187,0 0,-54.92 c 0,-4.749 -0.635,-8.393 -1.906,-10.934 -2.319,-4.638 -6.737,-6.958 -13.253,-6.958 -8.007,0 -13.502,3.396 -16.484,10.189 -1.546,3.589 -2.32,8.173 -2.32,13.75 l 0,48.873 -23.525,0 0,-90.124 22.78,0 0,13.17 c 3.037,-4.638 5.909,-7.979 8.615,-10.023 4.859,-3.644 11.017,-5.467 18.472,-5.467 z"
           style="letter-spacing:-3.35000014000000010px;fill:#257199;fill-opacity:1"
           id="path4020" />
        <path
           inkscape:connector-curvature="0"
           d="m -12222.51,10873.192 c -0.442,-3.368 -1.574,-6.405 -3.396,-9.111 -2.651,-3.645 -6.765,-5.467 -12.343,-5.467 -7.952,0 -13.391,3.948 -16.318,11.845 -1.546,4.197 -2.319,9.774 -2.319,16.732 0,6.627 0.773,11.956 2.319,15.988 2.816,7.51 8.118,11.265 15.904,11.265 5.522,0 9.443,-1.491 11.763,-4.473 2.319,-2.982 3.727,-6.848 4.224,-11.597 l 24.105,0 c -0.552,7.179 -3.148,13.972 -7.786,20.377 -7.4,10.327 -18.362,15.49 -32.886,15.49 -14.523,0 -25.209,-4.307 -32.057,-12.922 -6.847,-8.614 -10.271,-19.797 -10.271,-33.548 0,-15.517 3.783,-27.584 11.348,-36.198 7.566,-8.615 18.003,-12.923 31.312,-12.923 11.32,0 20.584,2.541 27.791,7.621 7.206,5.081 11.472,14.055 12.798,26.921 z"
           style="letter-spacing:2.20000004999999990px;fill:#257199;fill-opacity:1"
           id="path4022" />
        <path
           inkscape:connector-curvature="0"
           d="m -12144.185,10857.868 c -5.467,0 -9.706,1.712 -12.715,5.136 -3.01,3.424 -4.901,8.062 -5.674,13.916 l 36.695,0 c -0.386,-6.24 -2.278,-10.976 -5.674,-14.206 -3.396,-3.231 -7.607,-4.846 -12.632,-4.846 z m 0,-19.466 c 7.51,0 14.275,1.408 20.294,4.224 6.02,2.817 10.99,7.262 14.911,13.337 3.534,5.357 5.825,11.569 6.875,18.638 0.607,4.141 0.856,10.105 0.745,17.892 l -61.794,0 c 0.331,9.056 3.175,15.407 8.532,19.052 3.258,2.264 7.179,3.396 11.762,3.396 4.86,0 8.808,-1.381 11.846,-4.142 1.656,-1.491 3.12,-3.562 4.39,-6.212 l 24.105,0 c -0.608,5.356 -3.397,10.796 -8.367,16.318 -7.731,8.781 -18.555,13.171 -32.471,13.171 -11.486,0 -21.62,-3.7 -30.4,-11.1 -8.781,-7.4 -13.171,-19.439 -13.171,-36.116 0,-15.628 3.962,-27.611 11.887,-35.95 7.924,-8.339 18.21,-12.508 30.856,-12.508 z"
           style="letter-spacing:-3.35000014000000010px;fill:#257199;fill-opacity:1"
           id="path4024" />
      </g>
      <path
         id="path4026"
         d="m 665.40487,695.44339 21.49364,0 0,5.47899 -21.49364,0 z"
         style="color:#000000;fill:#257199;fill-opacity:1;fill-rule:nonzero;stroke:none;stroke-width:1;marker:none;visibility:visible;display:inline;overflow:visible;enable-background:accumulate"
         inkscape:connector-curvature="0" />
    </g>
    <g
       id="g3945"
       style="fill:#257199;fill-opacity:1;filter:url(#filter3994);opacity:0.09292035">
      <g
         inkscape:export-ydpi="90"
         inkscape:export-xdpi="90"
         inkscape:export-filename="C:\Users\User\Desktop\SVGSTOCK\LOGO\behance-logo-by-svgstock\behance-logo-by-svgstock.png"
         transform="matrix(0.42011212,0,0,0.42011212,5981.4055,-3848.8019)"
         id="text22023"
         style="font-size:169.64514159999999000px;font-style:normal;font-weight:normal;line-height:125%;letter-spacing:0px;word-spacing:0px;fill:#257199;fill-opacity:1;stroke:none;font-family:Sans">
        <path
           id="path22175"
           style="font-variant:normal;font-weight:bold;font-stretch:normal;text-align:start;writing-mode:lr-tb;text-anchor:start;fill:#257199;font-family:Helvetica;-inkscape-font-specification:Helvetica Bold;fill-opacity:1"
           d="m -12761.938,10830.201 0,26.922 29.986,0 c 5.356,0 9.705,-1.008 13.046,-3.024 3.341,-2.016 5.012,-5.591 5.012,-10.727 0,-5.688 -2.209,-9.443 -6.627,-11.266 -3.81,-1.27 -8.67,-1.905 -14.579,-1.905 z m 0,47.133 0,32.554 29.986,0 c 5.356,0 9.526,-0.718 12.508,-2.154 5.412,-2.65 8.118,-7.731 8.118,-15.241 0,-6.351 -2.623,-10.713 -7.87,-13.088 -2.926,-1.325 -7.041,-2.016 -12.342,-2.071 z m 34.956,-68.338 c 14.965,0.221 25.568,4.556 31.808,13.005 3.755,5.191 5.633,11.403 5.633,18.637 0,7.456 -1.878,13.447 -5.633,17.976 -2.098,2.54 -5.191,4.859 -9.277,6.958 6.24,2.264 10.948,5.853 14.123,10.768 3.175,4.915 4.763,10.879 4.763,17.892 0,7.235 -1.822,13.723 -5.467,19.466 -2.319,3.811 -5.219,7.014 -8.697,9.609 -3.921,2.982 -8.546,5.026 -13.875,6.13 -5.329,1.105 -11.114,1.657 -17.354,1.657 l -55.334,0 0,-122.098 59.31,0 z"
           inkscape:connector-curvature="0" />
        <path
           id="path22177"
           style="font-variant:normal;font-weight:bold;font-stretch:normal;text-align:start;writing-mode:lr-tb;text-anchor:start;fill:#257199;font-family:Helvetica;-inkscape-font-specification:Helvetica Bold;fill-opacity:1"
           d="m -12630.397,10857.868 c -5.467,0 -9.705,1.712 -12.715,5.136 -3.01,3.424 -4.901,8.062 -5.674,13.916 l 36.695,0 c -0.386,-6.24 -2.278,-10.976 -5.674,-14.206 -3.396,-3.231 -7.607,-4.846 -12.632,-4.846 z m 0,-19.466 c 7.51,0 14.275,1.408 20.295,4.224 6.019,2.817 10.989,7.262 14.91,13.337 3.534,5.357 5.826,11.569 6.875,18.638 0.607,4.141 0.856,10.105 0.745,17.892 l -61.794,0 c 0.331,9.056 3.175,15.407 8.532,19.052 3.258,2.264 7.179,3.396 11.762,3.396 4.86,0 8.808,-1.381 11.846,-4.142 1.656,-1.491 3.12,-3.562 4.39,-6.212 l 24.105,0 c -0.608,5.356 -3.396,10.796 -8.366,16.318 -7.732,8.781 -18.555,13.171 -32.472,13.171 -11.486,0 -21.619,-3.7 -30.4,-11.1 -8.78,-7.4 -13.171,-19.439 -13.171,-36.116 0,-15.628 3.963,-27.611 11.887,-35.95 7.925,-8.339 18.21,-12.508 30.856,-12.508 z"
           inkscape:connector-curvature="0" />
        <path
           id="path22179"
           style="font-variant:normal;font-weight:bold;font-stretch:normal;text-align:start;writing-mode:lr-tb;text-anchor:start;fill:#257199;font-family:Helvetica;-inkscape-font-specification:Helvetica Bold;fill-opacity:1"
           d="m -12521.801,10838.485 c 5.578,0 10.644,0.966 15.2,2.899 4.556,1.933 8.297,4.887 11.224,8.863 2.485,3.369 4.004,6.834 4.556,10.396 0.552,3.562 0.828,9.374 0.829,17.437 l 0,53.014 -24.105,0 0,-54.92 c 0,-4.859 -0.829,-8.78 -2.485,-11.762 -2.154,-4.197 -6.241,-6.295 -12.26,-6.295 -6.24,0 -10.975,2.084 -14.206,6.254 -3.231,4.169 -4.846,10.119 -4.846,17.85 l 0,48.873 -23.525,0 0,-121.684 23.525,0 0,43.157 c 3.424,-5.246 7.386,-8.905 11.887,-10.976 4.501,-2.071 9.236,-3.106 14.206,-3.106 z"
           inkscape:connector-curvature="0" />
        <path
           id="path22181"
           style="letter-spacing:-3.35000014000000010px;fill:#257199;fill-opacity:1"
           d="m -12418.092,10887.191 c -1.491,0.939 -2.996,1.699 -4.515,2.278 -1.518,0.58 -3.603,1.119 -6.254,1.616 l -5.301,0.994 c -4.97,0.883 -8.532,1.96 -10.686,3.23 -3.644,2.154 -5.467,5.495 -5.467,10.023 0,4.032 1.119,6.945 3.355,8.739 2.237,1.795 4.956,2.692 8.159,2.692 5.081,0 9.761,-1.491 14.041,-4.473 4.28,-2.982 6.502,-8.421 6.668,-16.318 z m -14.33,-11.017 c 4.362,-0.552 7.482,-1.242 9.36,-2.07 3.368,-1.436 5.053,-3.673 5.053,-6.71 0,-3.7 -1.284,-6.254 -3.852,-7.662 -2.568,-1.408 -6.337,-2.112 -11.307,-2.112 -5.577,0 -9.526,1.38 -11.845,4.141 -1.657,2.044 -2.761,4.805 -3.314,8.284 l -22.779,0 c 0.497,-7.897 2.706,-14.386 6.627,-19.466 6.24,-7.952 16.953,-11.929 32.139,-11.929 9.885,0 18.666,1.961 26.342,5.882 7.676,3.921 11.514,11.32 11.514,22.199 l 0,41.418 c 0,2.871 0.06,6.35 0.165,10.437 0.166,3.092 0.635,5.191 1.409,6.295 0.773,1.105 1.932,2.016 3.479,2.734 l 0,3.479 -25.679,0 c -0.718,-1.823 -1.215,-3.535 -1.491,-5.136 -0.276,-1.601 -0.497,-3.424 -0.663,-5.467 -3.258,3.534 -7.013,6.544 -11.265,9.029 -5.081,2.927 -10.824,4.39 -17.23,4.39 -8.173,0 -14.924,-2.333 -20.253,-6.999 -5.329,-4.667 -7.993,-11.28 -7.993,-19.839 0,-11.1 4.279,-19.135 12.839,-24.105 4.694,-2.706 11.597,-4.639 20.709,-5.799 z"
           inkscape:connector-curvature="0" />
        <path
           id="path22183"
           style="letter-spacing:-3.35000014000000010px;fill:#257199;fill-opacity:1"
           d="m -12326.762,10838.65 c 9.332,0 16.967,2.444 22.904,7.331 5.936,4.888 8.904,12.992 8.904,24.312 l 0,60.801 -24.187,0 0,-54.92 c 0,-4.749 -0.635,-8.393 -1.906,-10.934 -2.319,-4.638 -6.737,-6.958 -13.253,-6.958 -8.007,0 -13.502,3.396 -16.484,10.189 -1.546,3.589 -2.32,8.173 -2.32,13.75 l 0,48.873 -23.525,0 0,-90.124 22.78,0 0,13.17 c 3.037,-4.638 5.909,-7.979 8.615,-10.023 4.859,-3.644 11.017,-5.467 18.472,-5.467 z"
           inkscape:connector-curvature="0" />
        <path
           id="path22185"
           style="letter-spacing:2.20000004999999990px;fill:#257199;fill-opacity:1"
           d="m -12222.51,10873.192 c -0.442,-3.368 -1.574,-6.405 -3.396,-9.111 -2.651,-3.645 -6.765,-5.467 -12.343,-5.467 -7.952,0 -13.391,3.948 -16.318,11.845 -1.546,4.197 -2.319,9.774 -2.319,16.732 0,6.627 0.773,11.956 2.319,15.988 2.816,7.51 8.118,11.265 15.904,11.265 5.522,0 9.443,-1.491 11.763,-4.473 2.319,-2.982 3.727,-6.848 4.224,-11.597 l 24.105,0 c -0.552,7.179 -3.148,13.972 -7.786,20.377 -7.4,10.327 -18.362,15.49 -32.886,15.49 -14.523,0 -25.209,-4.307 -32.057,-12.922 -6.847,-8.614 -10.271,-19.797 -10.271,-33.548 0,-15.517 3.783,-27.584 11.348,-36.198 7.566,-8.615 18.003,-12.923 31.312,-12.923 11.32,0 20.584,2.541 27.791,7.621 7.206,5.081 11.472,14.055 12.798,26.921 z"
           inkscape:connector-curvature="0" />
        <path
           id="path22187"
           style="letter-spacing:-3.35000014000000010px;fill:#257199;fill-opacity:1"
           d="m -12144.185,10857.868 c -5.467,0 -9.706,1.712 -12.715,5.136 -3.01,3.424 -4.901,8.062 -5.674,13.916 l 36.695,0 c -0.386,-6.24 -2.278,-10.976 -5.674,-14.206 -3.396,-3.231 -7.607,-4.846 -12.632,-4.846 z m 0,-19.466 c 7.51,0 14.275,1.408 20.294,4.224 6.02,2.817 10.99,7.262 14.911,13.337 3.534,5.357 5.825,11.569 6.875,18.638 0.607,4.141 0.856,10.105 0.745,17.892 l -61.794,0 c 0.331,9.056 3.175,15.407 8.532,19.052 3.258,2.264 7.179,3.396 11.762,3.396 4.86,0 8.808,-1.381 11.846,-4.142 1.656,-1.491 3.12,-3.562 4.39,-6.212 l 24.105,0 c -0.608,5.356 -3.397,10.796 -8.367,16.318 -7.731,8.781 -18.555,13.171 -32.471,13.171 -11.486,0 -21.62,-3.7 -30.4,-11.1 -8.781,-7.4 -13.171,-19.439 -13.171,-36.116 0,-15.628 3.962,-27.611 11.887,-35.95 7.924,-8.339 18.21,-12.508 30.856,-12.508 z"
           inkscape:connector-curvature="0" />
      </g>
      <path
         inkscape:connector-curvature="0"
         style="color:#000000;fill:#257199;fill-opacity:1;fill-rule:nonzero;stroke:none;stroke-width:1;marker:none;visibility:visible;display:inline;overflow:visible;enable-background:accumulate"
         d="m 665.40487,695.44339 21.49364,0 0,5.47899 -21.49364,0 z"
         id="path3933" />
    </g>
  </g>
</svg>
